<svg width="10" height="12" viewBox="0 0 10 12" fill="none" xmlns="http://www.w3.org/2000/svg">
<path d="M5.08177 6.74576C5.89276 6.72216 6.74245 6.81487 7.57103 7.04495C8.4005 7.27503 9.13585 7.66102 9.59588 8.39508C9.9398 8.94542 10.1052 9.54886 9.92836 10.1894C9.80258 10.6453 9.43579 10.9251 9.03029 11.1552C8.27296 11.585 7.43733 11.7772 6.57444 11.8935C5.18731 12.0814 3.81162 12.0199 2.44912 11.7173C1.8246 11.5783 1.23351 11.3499 0.711908 10.9833C0.0697997 10.5315 -0.132511 9.92474 0.0829916 9.11398C0.295855 8.31418 0.82098 7.75457 1.5704 7.38037C2.52916 6.90167 3.57149 6.77525 4.63405 6.74576C4.76599 6.74239 4.89793 6.74576 5.08177 6.74576ZM5.28847 11.017C5.65262 10.9757 6.3176 10.9251 6.97203 10.8172C7.58687 10.7161 8.17884 10.5273 8.69341 10.1641C8.87812 10.0335 9.0039 9.87164 8.94409 9.64578C8.87812 9.39715 8.82359 9.13505 8.69517 8.91508C8.3961 8.4052 7.86834 8.17343 7.31507 8.01077C6.45834 7.75794 5.5717 7.70906 4.68243 7.73687C3.83097 7.76384 2.98391 7.83885 2.19843 8.19703C1.55456 8.48948 1.11828 8.93194 1.05671 9.64914C1.03912 9.8531 1.10245 10.0183 1.27749 10.1203C1.56336 10.2863 1.85011 10.465 2.15973 10.5779C3.0666 10.9091 4.02184 10.99 5.28847 11.017Z" fill="#007E8A"/>
<path d="M8.16038 3.02054C8.1595 4.67155 6.74159 6.03685 5.03428 6.02927C3.29355 6.02168 1.88179 4.67745 1.87563 3.02138C1.86947 1.37121 3.29355 0.00252874 5.01932 3.90449e-07C6.74334 -0.000842392 8.16126 1.36278 8.16038 3.02054ZM2.92411 3.01885C2.92763 4.1111 3.8864 5.02046 5.02108 5.00866C6.15577 4.99686 7.09431 4.09508 7.09518 3.01464C7.09694 1.90638 6.15137 1.00291 4.99646 1.00797C3.85386 1.01303 2.92059 1.91902 2.92411 3.01885Z" fill="#007E8A"/>
</svg>