<svg width="10" height="10" viewBox="0 0 10 10" fill="none" xmlns="http://www.w3.org/2000/svg">
<path d="M5 4C2.592 4 0 3.374 0 2C0 0.625999 2.592 0 5 0C7.408 0 10 0.625999 10 2C10 3.374 7.408 4 5 4ZM5 0.999999C2.375 0.999999 1 1.743 1 2C1 2.257 2.375 3 5 3C7.625 3 9 2.257 9 2C9 1.743 7.625 0.999999 5 0.999999Z" fill="#333333"/>
<path d="M5 10C2.592 10 0 9.374 0 8V2C0 1.724 0.224 1.5 0.5 1.5C0.776 1.5 1 1.724 1 2V8C1 8.257 2.375 9 5 9C7.625 9 9 8.257 9 8V2C9 1.724 9.224 1.5 9.5 1.5C9.776 1.5 10 1.724 10 2V8C10 9.374 7.408 10 5 10Z" fill="#333333"/>
<path d="M5 7C2.592 7 0 6.374 0 5C0 4.724 0.224 4.5 0.5 4.5C0.776 4.5 1 4.724 1 5C1 5.257 2.375 6 5 6C7.625 6 9 5.257 9 5C9 4.724 9.224 4.5 9.5 4.5C9.776 4.5 10 4.724 10 5C10 6.374 7.408 7 5 7Z" fill="#333333"/>
</svg>
