<svg width="10" height="9" viewBox="0 0 10 9" fill="none" xmlns="http://www.w3.org/2000/svg">
<path d="M8.95833 9H1.04167C0.467083 9 0 8.541 0 7.97727V1.02273C0 0.459 0.467083 0 1.04167 0H8.95833C9.53292 0 10 0.459 10 1.02273V7.97727C10 8.541 9.53292 9 8.95833 9ZM1.04167 0.409091C0.697083 0.409091 0.416667 0.684409 0.416667 1.02273V7.97727C0.416667 8.31559 0.697083 8.59091 1.04167 8.59091H8.95833C9.30292 8.59091 9.58333 8.31559 9.58333 7.97727V1.02273C9.58333 0.684409 9.30292 0.409091 8.95833 0.409091H1.04167Z" fill="#007E8A"/>
<path d="M6.87496 7.36374H5.62496C5.50996 7.36374 5.41663 7.2721 5.41663 7.15919V3.47737C5.41663 3.36446 5.50996 3.27283 5.62496 3.27283H6.87496C6.98996 3.27283 7.08329 3.36446 7.08329 3.47737V7.15919C7.08329 7.2721 6.98996 7.36374 6.87496 7.36374ZM5.83329 6.95465H6.66662V3.68192H5.83329V6.95465Z" fill="#007E8A"/>
<path d="M4.37502 7.3636H3.12502C3.01002 7.3636 2.91669 7.27197 2.91669 7.15906V5.1136C2.91669 5.00069 3.01002 4.90906 3.12502 4.90906H4.37502C4.49002 4.90906 4.58335 5.00069 4.58335 5.1136V7.15906C4.58335 7.27197 4.49002 7.3636 4.37502 7.3636ZM3.33335 6.95451H4.16669V5.31815H3.33335V6.95451Z" fill="#007E8A"/>
<path d="M7.29167 7.36368H2.70833C2.59333 7.36368 2.5 7.27204 2.5 7.15913C2.5 7.04623 2.59333 6.95459 2.70833 6.95459H7.29167C7.40667 6.95459 7.5 7.04623 7.5 7.15913C7.5 7.27204 7.40667 7.36368 7.29167 7.36368Z" fill="#007E8A"/>
<path d="M9.79167 2.04557H0.208333C0.0933333 2.04557 0 1.95393 0 1.84102C0 1.72811 0.0933333 1.63647 0.208333 1.63647H9.79167C9.90667 1.63647 10 1.72811 10 1.84102C10 1.95393 9.90667 2.04557 9.79167 2.04557Z" fill="#007E8A"/>
</svg>