<svg xmlns="http://www.w3.org/2000/svg" width="12" height="15" viewBox="0 0 12 15" fill="none">
<path fill-rule="evenodd" clip-rule="evenodd" d="M11.6384 2.36L11.9628 3.35278C12.0366 3.5788 11.9992 3.82919 11.8628 4.02248C11.7264 4.21566 11.5056 4.33113 11.2723 4.33113H11.0845L10.3382 13.7531C10.2828 14.4523 9.70159 15 9.01513 15H3.13632C2.44973 15 1.86864 14.4523 1.81315 13.7532L1.06682 4.33113H0.727735C0.494354 4.33113 0.273639 4.21566 0.13722 4.02237C0.000800453 3.82908 -0.0366392 3.5788 0.0372312 3.35278L0.361633 2.36C0.485162 1.98189 0.830526 1.72783 1.22095 1.72783H3.94732V0.821571C3.94732 0.368614 4.30815 0 4.7516 0H7.2484C7.69196 0 8.05268 0.368614 8.05268 0.821571V1.72783H10.7792C11.1695 1.72783 11.5148 1.98189 11.6384 2.36ZM7.19179 0.878906H4.80821V1.72783H7.19179V0.878906ZM9.01513 14.1211C9.25635 14.1211 9.46059 13.9284 9.48009 13.6822L10.2208 4.33113H1.93051L2.67135 13.6822C2.69085 13.9284 2.89509 14.1211 3.13632 14.1211H9.01513ZM1.17836 2.63809L0.912355 3.45222H11.0878L10.8218 2.63809C10.8156 2.61932 10.7986 2.60674 10.7792 2.60674H1.22095C1.20156 2.60674 1.18441 2.61932 1.17836 2.63809ZM8.1166 13.6503L8.1061 13.6498C7.86868 13.6372 7.6863 13.4305 7.69863 13.1881L8.10273 5.26624C8.11518 5.02385 8.31706 4.83731 8.55504 4.85024C8.79234 4.86283 8.97483 5.06963 8.9625 5.31201L8.55829 13.2338C8.5464 13.4684 8.35629 13.6504 8.12885 13.6504L8.1166 13.6503ZM3.45918 13.2348C3.47174 13.4691 3.66163 13.6503 3.88862 13.6503C3.89647 13.6503 3.90454 13.6501 3.91249 13.6496C4.1498 13.6365 4.33173 13.4293 4.31884 13.187L3.89546 5.26513C3.88257 5.02274 3.67967 4.837 3.44226 4.85028C3.20495 4.86344 3.02302 5.07058 3.03592 5.31296L3.45918 13.2348ZM6.4349 13.2138C6.4349 13.4566 6.24221 13.6533 6.00446 13.6533C5.76671 13.6533 5.57402 13.4566 5.57402 13.2138V5.29199C5.57402 5.04926 5.76671 4.85254 6.00446 4.85254C6.24221 4.85254 6.4349 5.04926 6.4349 5.29199V13.2138Z" fill="#767B7F"/>
</svg>