<svg width="15" height="10" viewBox="0 0 15 10" fill="none" xmlns="http://www.w3.org/2000/svg">
<path d="M7.49955 3C6.37113 3 5.4541 3.89666 5.4541 5C5.4541 6.10334 6.37113 7 7.49955 7C8.62797 7 9.545 6.10334 9.545 5C9.545 3.89666 8.62794 3 7.49955 3Z" fill="#BDBDBD"/>
<path d="M7.5 0C4.0909 0 1.17955 2.07331 0 5C1.17955 7.92666 4.0909 10 7.5 10C10.9125 10 13.8204 7.92666 15 5C13.8204 2.07331 10.9125 0 7.5 0ZM7.5 8.33331C5.61818 8.33331 4.0909 6.83997 4.0909 4.99997C4.0909 3.15997 5.61818 1.66666 7.5 1.66666C9.38182 1.66666 10.9091 3.16 10.9091 5C10.9091 6.84 9.38182 8.33331 7.5 8.33331Z" fill="#BDBDBD"/>
</svg>
