<svg width="10" height="13" viewBox="0 0 10 13" fill="none" xmlns="http://www.w3.org/2000/svg">
<path d="M5.00912 3.37401C3.93771 3.37401 2.8663 3.37258 1.7956 3.37473C1.18869 3.37545 0.679107 3.16432 0.326981 2.66046C-0.0573522 2.10937 -0.0988632 1.50961 0.206027 0.914142C0.504475 0.331559 1.0069 0.0123534 1.66248 0.00877488C3.89118 -0.00196068 6.11989 -0.00410709 8.34787 0.00949128C9.07288 0.0137855 9.5932 0.387384 9.86302 1.05728C10.1336 1.72718 9.99757 2.34841 9.5066 2.87088C9.16521 3.23374 8.71861 3.37545 8.22263 3.37473C7.15193 3.37258 6.08052 3.37401 5.00912 3.37401ZM4.94256 2.72774C6.01826 2.72774 7.09396 2.72774 8.16966 2.72702C8.25984 2.72702 8.35074 2.72273 8.4402 2.71199C9.05213 2.64257 9.47869 1.97768 9.28759 1.3951C9.13157 0.919868 8.7594 0.650762 8.24481 0.650762C6.08052 0.64933 3.91623 0.650046 1.75195 0.650762C1.67894 0.650762 1.60523 0.655056 1.53366 0.668654C1.10638 0.749529 0.813658 0.990722 0.701293 1.41442C0.592506 1.8238 0.704872 2.18237 1.01763 2.46794C1.23521 2.66619 1.50217 2.72988 1.79274 2.72917C2.84268 2.72559 3.89262 2.72774 4.94256 2.72774Z" fill="#007E8A"/>
<path d="M4.98406 7.46999C3.88688 7.46999 2.79043 7.47356 1.69325 7.46855C0.867329 7.46498 0.216754 6.93822 0.0399747 6.14522C-0.183325 5.1418 0.555998 4.16558 1.5816 4.10904C1.63743 4.10618 1.69325 4.10403 1.74908 4.10403C3.91694 4.10403 6.08481 4.1026 8.25268 4.10403C9.01991 4.10475 9.6483 4.52987 9.88377 5.23914C10.2559 6.35993 9.45578 7.44422 8.36433 7.46283C7.23781 7.48215 6.11058 7.46712 4.98334 7.46712C4.98406 7.46927 4.98406 7.46999 4.98406 7.46999ZM4.99193 4.75103C3.91694 4.75103 2.84196 4.74816 1.76625 4.75389C1.61882 4.75461 1.46279 4.77322 1.32466 4.82188C0.653332 5.05878 0.430033 5.89687 0.880211 6.44438C1.11568 6.73138 1.42486 6.83301 1.78128 6.83301C3.91837 6.83301 6.05618 6.83301 8.19327 6.83229C8.27057 6.83229 8.34787 6.82657 8.42445 6.81798C9.09506 6.74354 9.52377 5.93766 9.21101 5.34005C9.0013 4.93926 8.66707 4.75031 8.21689 4.75103C7.14262 4.75174 6.06692 4.75103 4.99193 4.75103Z" fill="#007E8A"/>
<path d="M3.77525 10.4387C3.88046 10.2691 3.96778 10.1131 4.06941 9.96636C4.19609 9.78314 4.38002 9.67077 4.58901 9.60492C4.66631 9.58059 4.68348 9.5398 4.68277 9.46536C4.67919 9.15976 4.6799 8.85486 4.68205 8.54926C4.68348 8.37176 4.76579 8.25296 4.90607 8.21002C5.13509 8.13988 5.32117 8.28015 5.32618 8.53638C5.33191 8.84628 5.32976 9.15546 5.3269 9.46536C5.32618 9.53908 5.34479 9.57701 5.42066 9.60492C5.77708 9.73876 6.03473 9.97852 6.16427 10.3414C6.1929 10.4215 6.23227 10.4409 6.31171 10.4402C7.27505 10.4373 8.23838 10.438 9.20172 10.4387C9.26113 10.4387 9.32268 10.4409 9.38065 10.4538C9.53524 10.4895 9.63758 10.6334 9.6247 10.7873C9.61253 10.939 9.48514 11.0678 9.33055 11.0807C9.28331 11.085 9.23607 11.0836 9.18884 11.0836C8.23409 11.0836 7.27934 11.085 6.32459 11.0821C6.23656 11.0821 6.19004 11.1015 6.15712 11.1916C5.97676 11.6833 5.50225 12.0118 4.99768 12.0032C4.48452 11.9947 4.01573 11.6626 3.84611 11.178C3.81676 11.0943 3.77168 11.0829 3.69581 11.0829C2.70671 11.085 1.7176 11.0836 0.727786 11.0857C0.598959 11.0857 0.487311 11.0578 0.411446 10.9497C0.281904 10.7651 0.373514 10.5146 0.592519 10.4559C0.649775 10.4409 0.711326 10.4394 0.771445 10.4394C1.73049 10.4387 2.68953 10.4387 3.64857 10.4387C3.7001 10.4387 3.75092 10.4387 3.77525 10.4387ZM4.40865 10.7572C4.40579 11.0929 4.67418 11.3563 5.01915 11.3591C5.32833 11.3613 5.59744 11.0864 5.59815 10.7672C5.59887 10.4559 5.31473 10.1682 5.00626 10.1682C4.68491 10.1675 4.4108 10.438 4.40865 10.7572Z" fill="#007E8A"/>
<path d="M1.30248 1.66712C1.30534 1.42091 1.50144 1.23054 1.74979 1.23268C2.00458 1.23483 2.19783 1.42521 2.19138 1.66926C2.18423 1.92048 1.98025 2.12159 1.73691 2.11658C1.49071 2.11085 1.2989 1.9126 1.30248 1.66712Z" fill="#007E8A"/>
<path d="M7.7309 1.67282C7.7309 1.42519 7.92557 1.23267 8.17463 1.23267C8.42012 1.23267 8.61336 1.41302 8.61622 1.6442C8.61908 1.90901 8.42441 2.11656 8.17392 2.11584C7.927 2.11584 7.7309 1.91974 7.7309 1.67282Z" fill="#007E8A"/>
<path d="M3.89835 1.67785C3.89692 1.92334 3.69795 2.11872 3.4539 2.11586C3.20913 2.113 3.01589 1.91547 3.0166 1.66926C3.01803 1.42521 3.21629 1.23054 3.46177 1.23268C3.70869 1.23483 3.9005 1.43093 3.89835 1.67785Z" fill="#007E8A"/>
<path d="M2.16988 5.76023C2.16702 6.01931 1.97879 6.21685 1.73187 6.21971C1.4871 6.22257 1.28455 6.01574 1.28813 5.76524C1.29171 5.52333 1.49855 5.32293 1.73759 5.32937C1.98881 5.33653 2.17203 5.51904 2.16988 5.76023Z" fill="#007E8A"/>
<path d="M8.5977 5.76736C8.59913 6.01499 8.40947 6.21253 8.16255 6.21968C7.92493 6.22684 7.71738 6.02143 7.71595 5.7781C7.71452 5.53332 7.91348 5.33006 8.15539 5.32935C8.41161 5.32863 8.59627 5.51114 8.5977 5.76736Z" fill="#007E8A"/>
<path d="M3.44029 6.2304C3.19767 6.22968 2.9987 6.03072 2.99799 5.78881C2.99727 5.53975 3.20411 5.3465 3.46892 5.34865C3.70439 5.35008 3.89405 5.55191 3.88761 5.79453C3.88188 6.03859 3.68435 6.23111 3.44029 6.2304Z" fill="#007E8A"/>
</svg>