<svg width="36" height="36" viewBox="0 0 36 36" fill="none" xmlns="http://www.w3.org/2000/svg">
<circle cx="18" cy="18" r="17" fill="#007E8A" stroke="white" stroke-width="2"/>
<path d="M25.7248 17.2128C25.7248 16.2565 24.9936 15.466 24.0535 15.3549V10.5551C24.0535 10.2613 23.8602 10.0124 23.5724 9.93593C23.2847 9.85954 22.9907 9.9788 22.8409 10.2328C21.8127 11.9772 20.1931 13.1695 18.0272 13.7767C16.3894 14.2358 15.0379 14.1693 15.0249 14.1685C15.005 14.1674 14.9853 14.1683 14.9658 14.1702H11.5027C9.76303 14.1702 8.34766 15.5658 8.34766 17.2812C8.34766 18.8969 9.60343 20.2284 11.2031 20.3777L12.2476 24.6129C12.3859 25.1736 12.8913 25.5653 13.4766 25.5653H14.2015C14.5921 25.5653 14.9545 25.3916 15.1959 25.0888C15.4373 24.786 15.5227 24.3977 15.4305 24.0235L14.5348 20.3921H14.9651C14.9848 20.3941 15.0045 20.395 15.0245 20.3939C15.0379 20.3931 16.3894 20.3265 18.0272 20.7857C20.193 21.3929 21.8126 22.5852 22.8409 24.3295C22.9605 24.5324 23.172 24.6493 23.3988 24.6493C23.4561 24.6493 23.5143 24.6418 23.5724 24.6264C23.8602 24.5499 24.0535 24.3011 24.0535 24.0073V19.2074C24.9936 19.0964 25.7248 18.3058 25.7248 17.3495V17.2128ZM14.5786 23.7162L14.6977 24.1992C14.735 24.3503 14.7005 24.5071 14.603 24.6294C14.5056 24.7517 14.3592 24.8218 14.2015 24.8218H13.4766C13.2402 24.8218 13.0361 24.6636 12.9803 24.4372L11.9826 20.3921H13.7588L14.0251 21.4719H13.8449C13.6366 21.4719 13.4678 21.6383 13.4678 21.8437C13.4678 22.049 13.6366 22.2154 13.8449 22.2154H14.2084L14.3952 22.9727H14.2771C14.0688 22.9727 13.9 23.1391 13.9 23.3444C13.9 23.5498 14.0688 23.7162 14.2771 23.7162H14.5786V23.7162ZM14.6265 18.071H12.2834C12.0751 18.071 11.9063 18.2375 11.9063 18.4428C11.9063 18.6481 12.0751 18.8145 12.2834 18.8145H14.6265V19.6486H14.0757C14.0688 19.6482 14.0619 19.6478 14.0549 19.6478H11.5027C11.4991 19.6478 11.4956 19.6483 11.492 19.6483C10.173 19.6426 9.10172 18.583 9.10172 17.2812C9.10172 15.9758 10.1788 14.9137 11.5027 14.9137H14.6265V18.071V18.071ZM23.2994 15.7128V18.8495V23.644C22.1695 21.9114 20.4169 20.6769 18.2079 20.0634C16.9849 19.7237 15.9285 19.6559 15.3805 19.647V18.4428V14.9153C15.9286 14.9065 16.985 14.8386 18.2079 14.4989C20.4168 13.8854 22.1695 12.6509 23.2994 10.9183V15.7128V15.7128ZM24.9707 17.3495C24.9707 17.895 24.5761 18.3514 24.0534 18.4555V16.1069C24.576 16.211 24.9707 16.6673 24.9707 17.2128V17.3495Z" fill="white"/>
<path d="M25.8381 15.1126C25.9287 15.1126 26.0196 15.0806 26.0918 15.0157L27.1793 14.0392C27.3332 13.9009 27.3444 13.6658 27.2042 13.514C27.0639 13.3622 26.8255 13.3513 26.6715 13.4895L25.5841 14.466C25.4302 14.6042 25.419 14.8393 25.5592 14.9912C25.6336 15.0717 25.7357 15.1126 25.8381 15.1126Z" fill="white"/>
<path d="M26.0918 19.5471C25.9379 19.4089 25.6994 19.4198 25.5592 19.5716C25.419 19.7234 25.4302 19.9585 25.5841 20.0968L26.6715 21.0733C26.7438 21.1382 26.8347 21.1702 26.9253 21.1702C27.0277 21.1702 27.1298 21.1293 27.2042 21.0488C27.3444 20.897 27.3332 20.6618 27.1793 20.5236L26.0918 19.5471Z" fill="white"/>
<path d="M27.2745 16.9092H26.4395C26.2313 16.9092 26.0625 17.0756 26.0625 17.2809C26.0625 17.4863 26.2313 17.6527 26.4395 17.6527H27.2745C27.4828 17.6527 27.6516 17.4863 27.6516 17.2809C27.6516 17.0756 27.4828 16.9092 27.2745 16.9092Z" fill="white"/>
<path d="M11.0789 18.3009C11.0695 18.2782 11.0578 18.2566 11.0442 18.2365C11.0303 18.2161 11.0148 18.1971 10.9975 18.18C10.9798 18.1629 10.9605 18.1473 10.9398 18.1339C10.9194 18.1205 10.8976 18.109 10.8749 18.0997C10.8519 18.0904 10.8282 18.0834 10.8044 18.0785C10.7558 18.0689 10.7057 18.0689 10.657 18.0785C10.6329 18.0834 10.6091 18.0904 10.5865 18.0997C10.5639 18.109 10.5417 18.1205 10.5213 18.1339C10.5006 18.1473 10.4813 18.1629 10.464 18.18C10.4466 18.1971 10.4308 18.2161 10.4172 18.2365C10.4037 18.2566 10.392 18.2782 10.3825 18.3009C10.3731 18.3232 10.366 18.3466 10.3611 18.3704C10.3562 18.3942 10.3535 18.4187 10.3535 18.4429C10.3535 18.467 10.3562 18.4916 10.3611 18.5157C10.366 18.5391 10.3731 18.5626 10.3825 18.5852C10.392 18.6076 10.4037 18.6291 10.4172 18.6492C10.4308 18.6696 10.4466 18.6886 10.464 18.7057C10.4813 18.7228 10.5006 18.7384 10.5213 18.7522C10.5417 18.7655 10.5639 18.7771 10.5865 18.7864C10.6091 18.7957 10.6329 18.8027 10.657 18.8076C10.6815 18.8124 10.706 18.8146 10.7305 18.8146C10.7554 18.8146 10.7799 18.8124 10.8044 18.8076C10.8286 18.8027 10.8519 18.7957 10.8749 18.7864C10.8976 18.7771 10.9194 18.7655 10.9398 18.7522C10.9605 18.7384 10.9798 18.7228 10.9975 18.7057C11.0148 18.6886 11.0303 18.6696 11.0442 18.6492C11.0578 18.6291 11.0695 18.6076 11.0789 18.5852C11.0883 18.5626 11.0955 18.5391 11.1004 18.5157C11.1053 18.4916 11.1076 18.467 11.1076 18.4429C11.1076 18.4187 11.1053 18.3942 11.1004 18.3704C11.0955 18.3466 11.0883 18.3232 11.0789 18.3009Z" fill="white"/>
</svg>
