<svg width="10" height="12" viewBox="0 0 10 12" fill="none" xmlns="http://www.w3.org/2000/svg">
<path d="M9.42308 2.6H9.23077V1.4C9.23077 1.24087 9.16999 1.08826 9.06179 0.975736C8.9536 0.863214 8.80686 0.8 8.65385 0.8H8.46154V0.6C8.46154 0.44087 8.40076 0.288258 8.29256 0.175736C8.18437 0.0632141 8.03763 0 7.88462 0H0.576923C0.423914 0 0.277171 0.0632141 0.168977 0.175736C0.0607828 0.288258 0 0.44087 0 0.6V10.6C0 10.7591 0.0607828 10.9117 0.168977 11.0243C0.277171 11.1368 0.423914 11.2 0.576923 11.2H0.769231V11.4C0.769231 11.5591 0.830014 11.7117 0.938208 11.8243C1.0464 11.9368 1.19314 12 1.34615 12H8.65385C8.80686 12 8.9536 11.9368 9.06179 11.8243C9.16999 11.7117 9.23077 11.5591 9.23077 11.4V7.8H9.42308C9.57609 7.8 9.72283 7.73679 9.83102 7.62426C9.93922 7.51174 10 7.35913 10 7.2V3.2C10 3.04087 9.93922 2.88826 9.83102 2.77574C9.72283 2.66321 9.57609 2.6 9.42308 2.6ZM8.65385 1.2C8.70485 1.2 8.75376 1.22107 8.78983 1.25858C8.82589 1.29609 8.84615 1.34696 8.84615 1.4V2.6H8.46154V1.2H8.65385ZM1.53846 0.4H1.92308V0.94L1.89077 0.8896C1.87216 0.863731 1.84802 0.84273 1.82024 0.828264C1.79247 0.813798 1.76183 0.806266 1.73077 0.806266C1.69971 0.806266 1.66907 0.813798 1.6413 0.828264C1.61352 0.84273 1.58937 0.863731 1.57077 0.8896L1.53846 0.94V0.4ZM0.384615 10.6V0.6C0.384615 0.546957 0.404876 0.496086 0.440941 0.458579C0.477006 0.421071 0.52592 0.4 0.576923 0.4H1.15385V1.6C1.15384 1.64293 1.16711 1.68472 1.1917 1.7192C1.21629 1.75367 1.25089 1.77901 1.2904 1.79145C1.3299 1.8039 1.37221 1.8028 1.41106 1.78831C1.44991 1.77382 1.48325 1.74672 1.50615 1.711L1.73077 1.36L1.95538 1.7104C1.97826 1.74607 2.01155 1.77316 2.05034 1.78766C2.08914 1.80216 2.13139 1.80331 2.17087 1.79094C2.21034 1.77857 2.24495 1.75334 2.26958 1.71896C2.29422 1.68458 2.30758 1.64288 2.30769 1.6V0.4H7.88462C7.93562 0.4 7.98453 0.421071 8.0206 0.458579C8.05666 0.496086 8.07692 0.546957 8.07692 0.6V2.6H2.11538C1.96238 2.6 1.81563 2.66321 1.70744 2.77574C1.59924 2.88826 1.53846 3.04087 1.53846 3.2V7.2C1.53846 7.35913 1.59924 7.51174 1.70744 7.62426C1.81563 7.73679 1.96238 7.8 2.11538 7.8H8.07692V10.6C8.07692 10.653 8.05666 10.7039 8.0206 10.7414C7.98453 10.7789 7.93562 10.8 7.88462 10.8H0.576923C0.52592 10.8 0.477006 10.7789 0.440941 10.7414C0.404876 10.7039 0.384615 10.653 0.384615 10.6ZM8.84615 11.4C8.84615 11.453 8.82589 11.5039 8.78983 11.5414C8.75376 11.5789 8.70485 11.6 8.65385 11.6H1.34615C1.29515 11.6 1.24624 11.5789 1.21017 11.5414C1.17411 11.5039 1.15385 11.453 1.15385 11.4V11.2H7.88462C8.03763 11.2 8.18437 11.1368 8.29256 11.0243C8.40076 10.9117 8.46154 10.7591 8.46154 10.6V7.8H8.84615V11.4ZM9.61539 7.2C9.61539 7.25304 9.59512 7.30391 9.55906 7.34142C9.52299 7.37893 9.47408 7.4 9.42308 7.4H2.11538C2.06438 7.4 2.01547 7.37893 1.9794 7.34142C1.94334 7.30391 1.92308 7.25304 1.92308 7.2V3.2C1.92308 3.14696 1.94334 3.09609 1.9794 3.05858C2.01547 3.02107 2.06438 3 2.11538 3H9.42308C9.47408 3 9.52299 3.02107 9.55906 3.05858C9.59512 3.09609 9.61539 3.14696 9.61539 3.2V7.2Z" fill="#BDBDBD"/>
<path d="M3.65384 4H3.26923V6.2C3.26923 6.25304 3.28949 6.30391 3.32555 6.34142C3.36162 6.37893 3.41053 6.4 3.46153 6.4H4.42307V6H3.65384V4Z" fill="#BDBDBD"/>
<path d="M5.76922 4H5.3846C5.23159 4 5.08485 4.06321 4.97666 4.17574C4.86846 4.28826 4.80768 4.44087 4.80768 4.6V5.8C4.80768 5.95913 4.86846 6.11174 4.97666 6.22426C5.08485 6.33679 5.23159 6.4 5.3846 6.4H5.76922C5.92223 6.4 6.06897 6.33679 6.17716 6.22426C6.28536 6.11174 6.34614 5.95913 6.34614 5.8V4.6C6.34614 4.44087 6.28536 4.28826 6.17716 4.17574C6.06897 4.06321 5.92223 4 5.76922 4ZM5.96152 5.8C5.96152 5.85304 5.94126 5.90391 5.9052 5.94142C5.86913 5.97893 5.82022 6 5.76922 6H5.3846C5.3336 6 5.28468 5.97893 5.24862 5.94142C5.21255 5.90391 5.19229 5.85304 5.19229 5.8V4.6C5.19229 4.54696 5.21255 4.49609 5.24862 4.45858C5.28468 4.42107 5.3336 4.4 5.3846 4.4H5.76922C5.82022 4.4 5.86913 4.42107 5.9052 4.45858C5.94126 4.49609 5.96152 4.54696 5.96152 4.6V5.8Z" fill="#BDBDBD"/>
<path d="M7.3077 4.4H7.69231C7.74332 4.4 7.79223 4.42107 7.82829 4.45858C7.86436 4.49609 7.88462 4.54696 7.88462 4.6H8.26924C8.26924 4.44087 8.20845 4.28826 8.10026 4.17574C7.99206 4.06321 7.84532 4 7.69231 4H7.3077C7.15469 4 7.00795 4.06321 6.89975 4.17574C6.79156 4.28826 6.73077 4.44087 6.73077 4.6V5.8C6.73077 5.95913 6.79156 6.11174 6.89975 6.22426C7.00795 6.33679 7.15469 6.4 7.3077 6.4H7.69231C7.84532 6.4 7.99206 6.33679 8.10026 6.22426C8.20845 6.11174 8.26924 5.95913 8.26924 5.8V5.2C8.26924 5.14696 8.24897 5.09609 8.21291 5.05858C8.17685 5.02107 8.12793 5 8.07693 5H7.5V5.4H7.88462V5.8C7.88462 5.85304 7.86436 5.90391 7.82829 5.94142C7.79223 5.97893 7.74332 6 7.69231 6H7.3077C7.25669 6 7.20778 5.97893 7.17171 5.94142C7.13565 5.90391 7.11539 5.85304 7.11539 5.8V4.6C7.11539 4.54696 7.13565 4.49609 7.17171 4.45858C7.20778 4.42107 7.25669 4.4 7.3077 4.4Z" fill="#BDBDBD"/>
</svg>
