<svg width="10" height="13" viewBox="0 0 10 13" fill="none" xmlns="http://www.w3.org/2000/svg">
<path d="M3.76132 6.16284L2.89475 7.05469L2.02818 6.16284L1.65607 6.54581L2.70871 7.62915C2.75805 7.67993 2.82498 7.7085 2.89475 7.7085C2.96455 7.70847 3.03145 7.67993 3.0808 7.62915L4.13344 6.54581L3.76132 6.16284Z" fill="black"/>
<path d="M3.1579 5.00011C3.15062 4.99996 3.14336 4.99996 3.13609 5.00011C2.85143 5.00631 2.62557 5.24882 2.63159 5.54177V7.43761H3.1579V5.54177H5.78948V5.00011H3.1579Z" fill="black"/>
<path d="M7.29133 5.62117C7.18858 5.51544 7.022 5.51544 6.91922 5.62117L5.86658 6.70451L6.23869 7.08748L7.10526 6.19563L7.97183 7.08748L8.34395 6.70451L7.29133 5.62117Z" fill="black"/>
<path d="M6.84216 5.81262V7.70846H4.21057V8.25012H6.84216C6.84944 8.25027 6.85669 8.25027 6.86397 8.25012C7.14862 8.24392 7.37449 8.00142 7.36847 7.70846V5.81262H6.84216Z" fill="black"/>
<path d="M9.9229 2.24603L7.81765 0.0793457C7.7683 0.0285645 7.70137 0 7.6316 0H0.789474C0.353462 0 0 0.363771 0 0.8125V12.1875C0 12.6362 0.353462 13 0.789474 13H9.21053C9.64654 13 10 12.6362 10 12.1875V2.4375C10 2.36567 9.97227 2.29681 9.9229 2.24603ZM9.47369 12.1875C9.47369 12.3371 9.35586 12.4583 9.21053 12.4583H0.789474C0.644137 12.4583 0.526308 12.3371 0.526308 12.1875V0.8125C0.526308 0.662924 0.644137 0.541658 0.789474 0.541658H7.52263L9.47369 2.54962V12.1875Z" fill="black"/>
</svg>
