<svg width="10" height="10" viewBox="0 0 10 10" fill="none" xmlns="http://www.w3.org/2000/svg">
<path d="M9.83871 4.03226H9.08064C8.9777 3.59627 8.80488 3.1798 8.56887 2.79903L9.10516 2.26274C9.16812 2.19976 9.16812 2.09766 9.10516 2.03468L7.96532 0.894194C7.90234 0.83123 7.80024 0.83123 7.73726 0.894194L7.20081 1.43048C6.82008 1.19466 6.40367 1.02204 5.96774 0.919355V0.16129C5.96774 0.0722177 5.89552 0 5.80645 0H4.19355C4.10448 0 4.03226 0.0722177 4.03226 0.16129V0.919355C3.59629 1.02224 3.17988 1.19506 2.79919 1.43113L2.26274 0.894194C2.19976 0.83123 2.09766 0.83123 2.03468 0.894194L0.894194 2.03468C0.83123 2.09766 0.83123 2.19976 0.894194 2.26274L1.43048 2.79903C1.1947 3.17984 1.0221 3.59631 0.919355 4.03226H0.16129C0.0722177 4.03226 0 4.10448 0 4.19355V5.80645C0 5.89552 0.0722177 5.96774 0.16129 5.96774H0.919355C1.0223 6.40373 1.19512 6.8202 1.43113 7.20097L0.894194 7.73726C0.83123 7.80024 0.83123 7.90234 0.894194 7.96532L2.03468 9.10581C2.09867 9.16631 2.19875 9.16631 2.26274 9.10581L2.79903 8.56952C3.17984 8.8053 3.59631 8.9779 4.03226 9.08064V9.83871C4.03226 9.92778 4.10448 10 4.19355 10H5.80645C5.89552 10 5.96774 9.92778 5.96774 9.83871V9.08064C6.40373 8.9777 6.8202 8.80488 7.20097 8.56887L7.73726 9.10516C7.80024 9.16812 7.90234 9.16812 7.96532 9.10516L9.10581 7.96468C9.16877 7.90169 9.16877 7.7996 9.10581 7.73661L8.56952 7.20032C8.80524 6.81972 8.97784 6.40347 9.08064 5.96774H9.83871C9.92778 5.96774 10 5.89552 10 5.80645V4.19355C10 4.10448 9.92778 4.03226 9.83871 4.03226ZM9.67742 5.64516H8.95161C8.87496 5.64514 8.80887 5.69909 8.79355 5.77419C8.69502 6.25964 8.50333 6.72139 8.22903 7.13387C8.18659 7.19782 8.19508 7.28282 8.24935 7.3371L8.76355 7.85113L7.85113 8.76355L7.3371 8.24935C7.28282 8.19508 7.19782 8.18659 7.13387 8.22903C6.72139 8.50333 6.25964 8.69502 5.77419 8.79355C5.69909 8.80887 5.64514 8.87496 5.64516 8.95161V9.67742H4.35484V8.95161C4.35486 8.87496 4.30091 8.80887 4.22581 8.79355C3.74036 8.69502 3.27861 8.50333 2.86613 8.22903C2.80218 8.18659 2.71718 8.19508 2.6629 8.24935L2.14887 8.76355L1.23629 7.85129L1.75048 7.33726C1.80476 7.28298 1.81325 7.19798 1.77081 7.13403C1.49651 6.72155 1.30482 6.2598 1.20629 5.77435C1.19103 5.69923 1.12504 5.64524 1.04839 5.64516H0.322581V4.35484H1.04839C1.12504 4.35486 1.19113 4.30091 1.20645 4.22581C1.30498 3.74036 1.49667 3.27861 1.77097 2.86613C1.81341 2.80218 1.8049 2.71718 1.75065 2.6629L1.23629 2.14871L2.14871 1.23629L2.6629 1.75048C2.71718 1.80476 2.80218 1.81325 2.86613 1.77081C3.27857 1.49657 3.74026 1.30486 4.22565 1.20629C4.30077 1.19103 4.35476 1.12504 4.35484 1.04839V0.322581H5.64516V1.04839C5.64514 1.12504 5.69909 1.19113 5.77419 1.20645C6.25958 1.30502 6.72127 1.49673 7.13371 1.77097C7.19766 1.81341 7.28266 1.80492 7.33694 1.75065L7.85113 1.23645L8.76355 2.14887L8.24935 2.6629C8.19508 2.71718 8.18659 2.80218 8.22903 2.86613C8.50333 3.27861 8.69502 3.74036 8.79355 4.22581C8.80887 4.30091 8.87496 4.35486 8.95161 4.35484H9.67742V5.64516Z" fill="#BDBDBD"/>
<path d="M5.00002 3.22583C4.02016 3.22583 3.22583 4.02016 3.22583 5.00002C3.22583 5.97988 4.02016 6.77422 5.00002 6.77422C5.97988 6.77422 6.77422 5.97988 6.77422 5.00002C6.77307 4.02065 5.9794 3.22698 5.00002 3.22583ZM5.00002 6.45164C4.19833 6.45164 3.54841 5.80172 3.54841 5.00002C3.54841 4.19831 4.19833 3.54841 5.00002 3.54841C5.80174 3.54841 6.45164 4.19831 6.45164 5.00002C6.45075 5.80135 5.80135 6.45075 5.00002 6.45164Z" fill="#BDBDBD"/>
</svg>
