<svg width="10" height="10" viewBox="0 0 10 10" fill="none" xmlns="http://www.w3.org/2000/svg">
<path d="M10 2.91261C9.9816 3.65445 9.71355 4.32871 9.1643 4.88585C8.97546 5.07731 8.78475 5.26615 8.59441 5.45612C8.3898 5.66035 8.08082 5.66448 7.88297 5.46626C7.68325 5.26578 7.68663 4.95868 7.88748 4.75445C8.11536 4.52318 8.34925 4.29718 8.5655 4.0554C9.02727 3.53807 9.13127 2.69749 8.81666 2.07578C8.44499 1.34107 7.84093 0.979161 7.02024 1.00431C6.56185 1.01821 6.15939 1.19954 5.83164 1.52278C5.35335 1.99431 4.87731 2.4681 4.41103 2.95165C4.1227 3.25086 3.97554 3.62366 3.94212 4.03663C3.90195 4.53632 4.03974 4.98533 4.35584 5.3754C4.43018 5.46701 4.5154 5.5511 4.60475 5.62844C4.83113 5.82366 4.86079 6.14315 4.66595 6.36052C4.47561 6.57339 4.15987 6.57451 3.93724 6.37817C3.51714 6.00837 3.21793 5.56161 3.058 5.02588C2.85677 4.35199 2.89844 3.69124 3.17475 3.044C3.32605 2.6896 3.54755 2.38476 3.81898 2.11407C4.27025 1.66394 4.71513 1.20742 5.17577 0.767421C5.62366 0.339435 6.16427 0.0912781 6.78147 0.0214488C7.69563 -0.0817934 8.49116 0.187762 9.14591 0.828239C9.71505 1.38425 9.99099 2.07766 10 2.91261Z" fill="#BDBDBD"/>
<path d="M8.12304e-06 7.12679C0.0082675 6.32789 0.298848 5.64649 0.855605 5.07696C1.03468 4.89376 1.21601 4.7128 1.39922 4.53372C1.57267 4.36403 1.80618 4.33062 2.00929 4.44062C2.1925 4.5401 2.30475 4.7601 2.25181 4.97109C2.22666 5.07133 2.16734 5.17345 2.09676 5.25004C1.89403 5.47079 1.66803 5.67014 1.46905 5.89389C1.10151 6.30686 0.949461 6.79567 1.01291 7.34604C1.07636 7.89642 1.34253 8.33153 1.78891 8.6544C2.48946 9.16123 3.48434 9.11242 4.11543 8.51474C4.6369 8.02143 5.1456 7.51273 5.63065 6.98375C5.98543 6.59631 6.10744 6.11089 6.04662 5.58529C5.98768 5.07772 5.74928 4.67075 5.3641 4.33963C5.21543 4.21161 5.17376 4.03366 5.22557 3.84369C5.2785 3.64959 5.41253 3.53359 5.60812 3.48891C5.76956 3.45212 5.91147 3.49792 6.03423 3.60041C6.37249 3.88236 6.63191 4.22437 6.81174 4.62758C6.97618 4.99625 7.06253 5.38256 7.06365 5.78502C7.06478 6.32676 6.93638 6.83809 6.63942 7.29348C6.49751 7.51085 6.32969 7.71584 6.14949 7.90242C5.71775 8.34918 5.27587 8.78693 4.82949 9.21942C4.4154 9.62037 3.91458 9.86065 3.34731 9.95563C2.64977 10.0724 1.99352 9.94587 1.38758 9.58283C0.937448 9.31327 0.587175 8.94385 0.340145 8.4787C0.114889 8.05635 -0.00111816 7.60696 8.12304e-06 7.12679Z" fill="#BDBDBD"/>
</svg>
