<svg width="12" height="11" viewBox="0 0 12 11" fill="none" xmlns="http://www.w3.org/2000/svg">
<path d="M4.70201 3.67951C4.22818 3.27101 3.97286 2.75528 3.9524 2.12903C3.93685 1.65914 4.07188 1.23099 4.3493 0.855245C4.93196 0.0669066 5.89188 -0.170495 6.70777 0.11848C7.63495 0.44675 8.0654 1.28339 8.07768 1.89981C7.85672 1.91864 7.63577 1.93747 7.40663 1.95712C7.34853 1.54535 7.17504 1.20807 6.84197 0.963304C6.59974 0.785662 6.32723 0.695613 6.02854 0.694795C5.43115 0.693157 4.88041 1.07054 4.71755 1.64358C4.46469 2.53179 4.89104 3.09501 5.67583 3.4683C5.5719 3.64677 5.47534 3.81376 5.37877 3.98076C5.07189 4.51287 4.76583 5.0458 4.45896 5.57791C4.1578 6.10101 3.85665 6.62411 3.55469 7.14722C3.28791 7.60892 3.01949 8.06981 2.75516 8.53233C2.73716 8.56426 2.74289 8.61747 2.75435 8.65595C2.83455 8.9351 2.77808 9.18805 2.58167 9.39517C2.39755 9.59 2.16023 9.65058 1.89918 9.57772C1.5833 9.49013 1.37216 9.1856 1.39671 8.86224C1.42208 8.52824 1.67986 8.2409 2.00065 8.20243C2.07348 8.19342 2.11358 8.16722 2.14795 8.10746C2.39182 7.68178 2.63814 7.25691 2.88364 6.83204C3.19461 6.29421 3.50641 5.75719 3.81738 5.21853C4.09398 4.738 4.36894 4.25664 4.64554 3.77611C4.66191 3.74582 4.67991 3.71635 4.70201 3.67951Z" fill="#555FD1"/>
<path d="M0.890942 7.20776C1.02761 7.4026 1.15527 7.58433 1.27311 7.75297C1.14626 7.89869 1.01451 8.02393 0.913853 8.17129C0.453126 8.84911 0.742824 9.81837 1.48588 10.1614C2.11846 10.4536 2.92371 10.2522 3.3067 9.55968C3.39262 9.40496 3.45072 9.23632 3.445 9.05213C3.44009 8.88186 3.44418 8.71158 3.44418 8.52166C3.49491 8.52166 3.53911 8.52166 3.5833 8.52166C5.4483 8.52166 7.31249 8.52084 9.1775 8.52412C9.29206 8.52412 9.37226 8.49628 9.4541 8.4136C9.79289 8.07387 10.405 8.20976 10.5744 8.65674C10.6767 8.92606 10.599 9.24778 10.3895 9.42542C10.1431 9.63336 9.83463 9.66446 9.5613 9.4991C9.49583 9.45981 9.43282 9.40578 9.38944 9.34438C9.33871 9.27152 9.27979 9.26088 9.20041 9.26088C8.01381 9.26252 6.82803 9.26252 5.64143 9.26252C5.17252 9.26252 4.70361 9.26415 4.23469 9.26088C4.15695 9.26006 4.12586 9.28217 4.10785 9.36157C3.96382 10.0034 3.59229 10.4847 3.00636 10.7672C2.24366 11.1347 1.49242 11.0692 0.813199 10.5551C0.227264 10.1114 -0.042789 9.50238 0.00549334 8.76479C0.0513206 8.10989 0.362292 7.60398 0.890942 7.20776Z" fill="#555FD1"/>
<path d="M8.88047 7.81456C8.63578 7.39133 8.39027 6.96809 8.14641 6.54486C7.76179 5.87932 7.3788 5.21296 6.99418 4.54659C6.66275 3.97274 6.33132 3.39888 5.99744 2.82666C5.97944 2.79637 5.94015 2.76608 5.90578 2.75953C5.61036 2.70059 5.40905 2.53605 5.33704 2.24052C5.26502 1.94418 5.37141 1.7035 5.60791 1.52013C5.8305 1.3474 6.16356 1.34985 6.41397 1.52095C6.64147 1.67649 6.75686 1.99412 6.6603 2.26672C6.62102 2.37805 6.63657 2.45582 6.69139 2.54996C7.2405 3.49302 7.78634 4.43772 8.33217 5.38323C8.60714 5.85885 8.88047 6.33448 9.15216 6.81256C9.18653 6.87395 9.21844 6.88787 9.28718 6.86577C10.0032 6.6341 10.6653 6.7528 11.2496 7.21614C11.6931 7.56815 11.9443 8.04213 11.9918 8.61272C12.0458 9.27171 11.8331 9.83657 11.3576 10.2925C10.9435 10.6904 10.4419 10.8828 9.86248 10.8705C9.58097 10.8648 9.31583 10.8017 9.04495 10.6822C9.14152 10.4767 9.23644 10.2737 9.32237 10.0903C9.53023 10.1231 9.72663 10.1779 9.92467 10.182C10.5425 10.1927 11.0982 9.76698 11.2602 9.17921C11.4255 8.58243 11.1849 7.94799 10.6473 7.63446C10.2225 7.38723 9.7741 7.36922 9.32564 7.59107C9.1808 7.66229 9.03595 7.73597 8.88047 7.81456Z" fill="#555FD1"/>
</svg>