<svg width="76" height="30" viewBox="0 0 76 30" fill="none" xmlns="http://www.w3.org/2000/svg">
<path d="M3.168 26.6453H6.32L8.08 20.6613L9.84 26.6453H12.992L16.16 15.4453H12.64L11.12 21.6053L9.312 15.4453H6.848L5.04 21.6053L3.52 15.4453H0L3.168 26.6453ZM16.9563 15.4453V26.6453H20.1562V15.4453H16.9563ZM32.9051 20.0373H27.2091V22.7573H29.5931C29.2571 23.4613 28.5691 23.9413 27.3691 23.9413C25.2891 23.9413 24.5531 22.4053 24.5531 21.0773C24.5531 19.4773 25.6251 18.3253 27.2411 18.3253C28.2331 18.3253 28.9851 18.7413 29.3851 19.3493L32.1051 17.7973C31.1131 16.2293 29.3051 15.1893 27.1771 15.1893C23.8331 15.1893 21.3531 17.7333 21.3531 21.0613C21.3531 24.3573 23.7691 26.9013 27.3051 26.9013C30.7131 26.9013 32.9051 24.5173 32.9051 21.3653V20.0373ZM34.1125 15.4453V26.6453H37.3125V15.4453H34.1125Z" fill="black"/>
<path d="M42.1094 23.5413V15.4453H38.9094V26.6453H45.7894V23.5413H42.1094ZM53.5456 26.6453H56.9856L53.4176 15.4453H49.6736L46.1056 26.6453H49.5456L49.9296 25.2053H53.1616L53.5456 26.6453ZM50.6176 22.6453L51.5456 19.2053L52.4736 22.6453H50.6176ZM64.8281 20.8693C65.5321 20.3573 65.9481 19.5893 65.9481 18.5973C65.9481 16.5813 64.6041 15.4453 62.0761 15.4453H57.6281V26.6453H62.3641C64.9401 26.6453 66.2681 25.3653 66.2681 23.3493C66.2681 22.2293 65.7241 21.3813 64.8281 20.8693ZM61.8841 18.1973C62.3161 18.1973 62.7481 18.4213 62.7481 18.9493C62.7481 19.4293 62.4281 19.6373 62.0601 19.6853L60.8281 19.7013V18.1973H61.8841ZM62.1721 23.8933H60.8281V22.2933L62.3481 22.3093C62.7801 22.3733 63.0681 22.6453 63.0681 23.0933C63.0681 23.5733 62.6841 23.8933 62.1721 23.8933ZM71.1914 26.9013C73.8474 26.9013 75.5594 25.6213 75.5594 23.3173C75.5594 20.9813 73.8154 20.3093 72.0554 19.7973C70.7754 19.4293 70.2314 19.2533 70.2314 18.7573C70.2314 18.4373 70.4874 18.1653 71.0794 18.1653C71.6714 18.1653 72.2794 18.5013 72.6154 19.3493L75.2714 17.7973C74.5514 16.0693 72.9194 15.1893 71.0634 15.1893C68.6154 15.1893 67.0314 16.7253 67.0314 18.7413C67.0314 20.7893 68.5194 21.7813 70.3754 22.3413C71.5114 22.6773 72.3594 22.7733 72.3594 23.3493C72.3594 23.6853 72.0394 23.9253 71.2714 23.9253C70.3274 23.9253 69.6554 23.5093 69.2554 22.5013L66.5194 24.0853C67.0634 25.7653 68.6954 26.9013 71.1914 26.9013Z" fill="#0881C0"/>
<path d="M4.40625 4.95312C4.40625 5.53125 4.20833 5.97656 3.8125 6.28906C3.41927 6.59896 2.85547 6.75391 2.12109 6.75391H1.44922V9H0.785156V3.28906H2.26562C3.69271 3.28906 4.40625 3.84375 4.40625 4.95312ZM1.44922 6.18359H2.04688C2.63542 6.18359 3.0612 6.08854 3.32422 5.89844C3.58724 5.70833 3.71875 5.40365 3.71875 4.98438C3.71875 4.60677 3.59505 4.32552 3.34766 4.14062C3.10026 3.95573 2.71484 3.86328 2.19141 3.86328H1.44922V6.18359ZM7.46094 4.64062C7.65104 4.64062 7.82161 4.65625 7.97266 4.6875L7.88281 5.28906C7.70573 5.25 7.54948 5.23047 7.41406 5.23047C7.06771 5.23047 6.77083 5.37109 6.52344 5.65234C6.27865 5.93359 6.15625 6.28385 6.15625 6.70312V9H5.50781V4.71875H6.04297L6.11719 5.51172H6.14844C6.30729 5.23307 6.4987 5.01823 6.72266 4.86719C6.94661 4.71615 7.19271 4.64062 7.46094 4.64062ZM12.4688 6.85547C12.4688 7.55339 12.293 8.09896 11.9414 8.49219C11.5898 8.88281 11.1042 9.07812 10.4844 9.07812C10.1016 9.07812 9.76172 8.98828 9.46484 8.80859C9.16797 8.62891 8.9388 8.37109 8.77734 8.03516C8.61589 7.69922 8.53516 7.30599 8.53516 6.85547C8.53516 6.15755 8.70964 5.61458 9.05859 5.22656C9.40755 4.83594 9.89193 4.64062 10.5117 4.64062C11.1107 4.64062 11.5859 4.83984 11.9375 5.23828C12.2917 5.63672 12.4688 6.17578 12.4688 6.85547ZM9.20703 6.85547C9.20703 7.40234 9.31641 7.81901 9.53516 8.10547C9.75391 8.39193 10.0755 8.53516 10.5 8.53516C10.9245 8.53516 11.2461 8.39323 11.4648 8.10938C11.6862 7.82292 11.7969 7.40495 11.7969 6.85547C11.7969 6.3112 11.6862 5.89844 11.4648 5.61719C11.2461 5.33333 10.9219 5.19141 10.4922 5.19141C10.0677 5.19141 9.7474 5.33073 9.53125 5.60938C9.3151 5.88802 9.20703 6.30339 9.20703 6.85547ZM16.5234 8.42578H16.4883C16.1888 8.86068 15.7409 9.07812 15.1445 9.07812C14.5846 9.07812 14.1484 8.88672 13.8359 8.50391C13.526 8.12109 13.3711 7.57682 13.3711 6.87109C13.3711 6.16536 13.5273 5.61719 13.8398 5.22656C14.1523 4.83594 14.5872 4.64062 15.1445 4.64062C15.7253 4.64062 16.1706 4.85156 16.4805 5.27344H16.5312L16.5039 4.96484L16.4883 4.66406V2.92188H17.1367V9H16.6094L16.5234 8.42578ZM15.2266 8.53516C15.6693 8.53516 15.9896 8.41536 16.1875 8.17578C16.388 7.93359 16.4883 7.54427 16.4883 7.00781V6.87109C16.4883 6.26432 16.3867 5.83203 16.1836 5.57422C15.9831 5.3138 15.6615 5.18359 15.2188 5.18359C14.8385 5.18359 14.5469 5.33203 14.3438 5.62891C14.1432 5.92318 14.043 6.33984 14.043 6.87891C14.043 7.42578 14.1432 7.83854 14.3438 8.11719C14.5443 8.39583 14.8385 8.53516 15.2266 8.53516ZM19.125 4.71875V7.49609C19.125 7.84505 19.2044 8.10547 19.3633 8.27734C19.5221 8.44922 19.7708 8.53516 20.1094 8.53516C20.5573 8.53516 20.8841 8.41276 21.0898 8.16797C21.2982 7.92318 21.4023 7.52344 21.4023 6.96875V4.71875H22.0508V9H21.5156L21.4219 8.42578H21.3867C21.2539 8.63672 21.069 8.79818 20.832 8.91016C20.5977 9.02214 20.3294 9.07812 20.0273 9.07812C19.5065 9.07812 19.1159 8.95443 18.8555 8.70703C18.5977 8.45964 18.4688 8.0638 18.4688 7.51953V4.71875H19.125ZM25.1406 9.07812C24.5208 9.07812 24.0404 8.88802 23.6992 8.50781C23.3607 8.125 23.1914 7.58464 23.1914 6.88672C23.1914 6.17057 23.3633 5.61719 23.707 5.22656C24.0534 4.83594 24.5456 4.64062 25.1836 4.64062C25.3893 4.64062 25.5951 4.66276 25.8008 4.70703C26.0065 4.7513 26.168 4.80339 26.2852 4.86328L26.0859 5.41406C25.9427 5.35677 25.7865 5.3099 25.6172 5.27344C25.4479 5.23438 25.2982 5.21484 25.168 5.21484C24.2982 5.21484 23.8633 5.76953 23.8633 6.87891C23.8633 7.40495 23.9688 7.80859 24.1797 8.08984C24.3932 8.37109 24.7083 8.51172 25.125 8.51172C25.4818 8.51172 25.8477 8.4349 26.2227 8.28125V8.85547C25.9362 9.00391 25.5755 9.07812 25.1406 9.07812ZM29.0508 9.07812C28.418 9.07812 27.918 8.88542 27.5508 8.5C27.1862 8.11458 27.0039 7.57943 27.0039 6.89453C27.0039 6.20443 27.1732 5.65625 27.5117 5.25C27.8529 4.84375 28.3099 4.64062 28.8828 4.64062C29.4193 4.64062 29.8438 4.81771 30.1562 5.17188C30.4688 5.52344 30.625 5.98828 30.625 6.56641V6.97656H27.6758C27.6888 7.47917 27.8151 7.86068 28.0547 8.12109C28.2969 8.38151 28.6367 8.51172 29.0742 8.51172C29.5352 8.51172 29.9909 8.41536 30.4414 8.22266V8.80078C30.2122 8.89974 29.9948 8.97005 29.7891 9.01172C29.5859 9.05599 29.3398 9.07812 29.0508 9.07812ZM28.875 5.18359C28.5312 5.18359 28.2565 5.29557 28.0508 5.51953C27.8477 5.74349 27.7279 6.05339 27.6914 6.44922H29.9297C29.9297 6.04036 29.8385 5.72786 29.6562 5.51172C29.474 5.29297 29.2135 5.18359 28.875 5.18359ZM34.6484 8.42578H34.6133C34.3138 8.86068 33.8659 9.07812 33.2695 9.07812C32.7096 9.07812 32.2734 8.88672 31.9609 8.50391C31.651 8.12109 31.4961 7.57682 31.4961 6.87109C31.4961 6.16536 31.6523 5.61719 31.9648 5.22656C32.2773 4.83594 32.7122 4.64062 33.2695 4.64062C33.8503 4.64062 34.2956 4.85156 34.6055 5.27344H34.6562L34.6289 4.96484L34.6133 4.66406V2.92188H35.2617V9H34.7344L34.6484 8.42578ZM33.3516 8.53516C33.7943 8.53516 34.1146 8.41536 34.3125 8.17578C34.513 7.93359 34.6133 7.54427 34.6133 7.00781V6.87109C34.6133 6.26432 34.5117 5.83203 34.3086 5.57422C34.1081 5.3138 33.7865 5.18359 33.3438 5.18359C32.9635 5.18359 32.6719 5.33203 32.4688 5.62891C32.2682 5.92318 32.168 6.33984 32.168 6.87891C32.168 7.42578 32.2682 7.83854 32.4688 8.11719C32.6693 8.39583 32.9635 8.53516 33.3516 8.53516ZM38.8164 3.28906H40.4297C41.1875 3.28906 41.7357 3.40234 42.0742 3.62891C42.4128 3.85547 42.582 4.21354 42.582 4.70312C42.582 5.04167 42.487 5.32161 42.2969 5.54297C42.1094 5.76172 41.8346 5.90365 41.4727 5.96875V6.00781C42.3398 6.15625 42.7734 6.61198 42.7734 7.375C42.7734 7.88542 42.6003 8.28385 42.2539 8.57031C41.9102 8.85677 41.4284 9 40.8086 9H38.8164V3.28906ZM39.4805 5.73438H40.5742C41.043 5.73438 41.3802 5.66146 41.5859 5.51562C41.7917 5.36719 41.8945 5.11849 41.8945 4.76953C41.8945 4.44922 41.7799 4.21875 41.5508 4.07812C41.3216 3.9349 40.957 3.86328 40.457 3.86328H39.4805V5.73438ZM39.4805 6.29688V8.43359H40.6719C41.1328 8.43359 41.4792 8.34505 41.7109 8.16797C41.9453 7.98828 42.0625 7.70833 42.0625 7.32812C42.0625 6.97396 41.9427 6.71354 41.7031 6.54688C41.4661 6.38021 41.1042 6.29688 40.6172 6.29688H39.4805ZM43.2266 4.71875H43.9219L44.8594 7.16016C45.0651 7.71745 45.1927 8.11979 45.2422 8.36719H45.2734C45.3073 8.23438 45.3776 8.00781 45.4844 7.6875C45.5938 7.36458 45.9479 6.375 46.5469 4.71875H47.2422L45.4023 9.59375C45.2201 10.0755 45.0065 10.4167 44.7617 10.6172C44.5195 10.8203 44.2214 10.9219 43.8672 10.9219C43.6693 10.9219 43.474 10.8997 43.2812 10.8555V10.3359C43.4245 10.3672 43.5846 10.3828 43.7617 10.3828C44.207 10.3828 44.5247 10.1328 44.7148 9.63281L44.9531 9.02344L43.2266 4.71875ZM47.8438 8.58594C47.8438 8.41146 47.8828 8.27995 47.9609 8.19141C48.0417 8.10026 48.1562 8.05469 48.3047 8.05469C48.4557 8.05469 48.5729 8.10026 48.6562 8.19141C48.7422 8.27995 48.7852 8.41146 48.7852 8.58594C48.7852 8.75521 48.7422 8.88542 48.6562 8.97656C48.5703 9.06771 48.4531 9.11328 48.3047 9.11328C48.1719 9.11328 48.0612 9.07292 47.9727 8.99219C47.8867 8.90885 47.8438 8.77344 47.8438 8.58594ZM47.8438 5.13672C47.8438 4.78516 47.9974 4.60938 48.3047 4.60938C48.625 4.60938 48.7852 4.78516 48.7852 5.13672C48.7852 5.30599 48.7422 5.4362 48.6562 5.52734C48.5703 5.61849 48.4531 5.66406 48.3047 5.66406C48.1719 5.66406 48.0612 5.6237 47.9727 5.54297C47.8867 5.45964 47.8438 5.32422 47.8438 5.13672Z" fill="black"/>
</svg>

