<svg width="10" height="9" viewBox="0 0 10 9" fill="none" xmlns="http://www.w3.org/2000/svg">
<path d="M4.99288 8.99942C3.77559 8.99942 2.55889 8.99825 1.3416 9C0.957164 9.00058 0.624489 8.87903 0.357536 8.59753C-0.0513279 8.16715 -0.11414 7.5652 0.192944 7.03303C1.06011 5.52902 1.92843 4.02559 2.7956 2.52158C3.14514 1.91555 3.49584 1.31069 3.84305 0.703498C4.00765 0.415607 4.2304 0.191111 4.54737 0.0817703C5.18655 -0.139237 5.80246 0.0963099 6.14269 0.684887C7.17619 2.47272 8.20853 4.26056 9.24087 6.04897C9.45432 6.41887 9.68056 6.78236 9.87074 7.16389C10.2732 7.96941 9.68695 8.9494 8.7878 8.99535C8.73197 8.99825 8.67556 8.99942 8.61914 8.99942C7.41 8.99942 6.20144 8.99942 4.99288 8.99942ZM5.00276 8.16657C6.21132 8.16657 7.42047 8.16657 8.62903 8.16657C8.66858 8.16657 8.70812 8.16715 8.74709 8.16366C8.89423 8.15087 9.00823 8.07933 9.08674 7.95603C9.20074 7.7769 9.17515 7.60416 9.07162 7.42561C8.04743 5.65523 7.02614 3.8831 6.00369 2.11155C5.80711 1.77073 5.6117 1.42933 5.41395 1.08968C5.28193 0.862275 5.05685 0.77678 4.82712 0.86402C4.68812 0.916945 4.616 1.03326 4.54621 1.15424C3.54004 2.89961 2.5333 4.64441 1.52655 6.3892C1.32008 6.74689 1.11478 7.10515 0.907147 7.46225C0.830376 7.59486 0.809438 7.72979 0.868179 7.87344C0.947858 8.06886 1.10373 8.16715 1.33404 8.16715C2.55714 8.16715 3.77966 8.16657 5.00276 8.16657Z" fill="#BDBDBD"/>
<path d="M5.48461 4.24773C5.48461 4.63565 5.48693 5.023 5.48403 5.41092C5.48286 5.58366 5.37527 5.72848 5.2194 5.78664C5.05946 5.84654 4.878 5.80408 4.76343 5.67904C4.69422 5.60343 4.65583 5.51387 4.65525 5.41209C4.65467 4.63682 4.65292 3.86154 4.65641 3.08569C4.65758 2.86352 4.84369 2.68962 5.06586 2.68788C5.29326 2.68613 5.48054 2.85712 5.48345 3.08511C5.48868 3.47246 5.48461 3.86038 5.48461 4.24773Z" fill="#BDBDBD"/>
<path d="M5.56882 6.78822C5.56766 7.06332 5.34375 7.28665 5.06923 7.28607C4.79414 7.28549 4.5708 7.06157 4.5708 6.78648C4.57022 6.50847 4.79937 6.28049 5.07563 6.28398C5.35072 6.28805 5.56941 6.51196 5.56882 6.78822Z" fill="#BDBDBD"/>
</svg>
