<svg width="100%" height="100%" viewBox="0 0 15 16" fill="none" xmlns="http://www.w3.org/2000/svg">
<path fill-rule="evenodd" clip-rule="evenodd" d="M8.12431 11.4379V0.615385C8.12431 0.275692 7.84431 0 7.49931 0C7.15431 0 6.87431 0.275692 6.87431 0.615385V11.4373L3.56595 8.18092C3.3222 7.94092 2.92595 7.94092 2.6822 8.18092C2.43845 8.42092 2.43845 8.81107 2.6822 9.05107L7.0572 13.3588C7.1797 13.4781 7.3397 13.5385 7.4997 13.5385C7.6597 13.5385 7.8197 13.4781 7.94095 13.3588L12.316 9.05107C12.5597 8.81107 12.5597 8.42092 12.316 8.18092C12.0722 7.94092 11.676 7.94092 11.4322 8.18092L8.12431 11.4379ZM14.375 16H0.625C0.28 16 0 15.7243 0 15.3846C0 15.0449 0.28 14.7692 0.625 14.7692H14.375C14.72 14.7692 15 15.0449 15 15.3846C15 15.7243 14.72 16 14.375 16Z" fill="#797e82"/>
</svg>
