<svg width="10" height="10" viewBox="0 0 10 10" fill="none" xmlns="http://www.w3.org/2000/svg">
<path fill-rule="evenodd" clip-rule="evenodd" d="M5 10C7.76142 10 10 7.76142 10 5C10 2.23858 7.76142 0 5 0C2.23858 0 0 2.23858 0 5C0 7.76142 2.23858 10 5 10ZM4.85 2C3.82991 2 3 2.84823 3 3.89084C3 4.15191 3.20706 4.36355 3.4625 4.36355C3.71794 4.36355 3.925 4.15191 3.925 3.89084C3.925 3.36953 4.33995 2.94542 4.85 2.94542C5.36004 2.94542 5.775 3.36953 5.775 3.89084C5.775 4.41214 5.36004 4.83626 4.85 4.83626C4.59456 4.83626 4.3875 5.04789 4.3875 5.30896V6.49074C4.3875 6.75182 4.59456 6.96345 4.85 6.96345C5.10544 6.96345 5.3125 6.75182 5.3125 6.49074V5.72185C6.10953 5.51143 6.7 4.77029 6.7 3.89084C6.7 2.84823 5.87009 2 4.85 2ZM4.8506 8.50013C5.16989 8.50013 5.42873 8.23558 5.42873 7.90925C5.42873 7.58291 5.16989 7.31836 4.8506 7.31836C4.53131 7.31836 4.27248 7.58291 4.27248 7.90925C4.27248 8.23558 4.53131 8.50013 4.8506 8.50013Z" fill="#333333"/>
</svg>
