<svg width="15" height="16" viewBox="0 0 15 16" fill="none" xmlns="http://www.w3.org/2000/svg">
<path d="M3.64715 3.72412C5.74633 1.85444 8.88784 1.82585 11.016 3.53258L9.32916 3.59547C9.1114 3.60405 8.943 3.78129 8.95171 3.99571C8.96042 4.2044 9.13463 4.36735 9.34367 4.36735C9.34948 4.36735 9.35238 4.36735 9.35819 4.36735L11.948 4.27301C12.16 4.26444 12.3255 4.09577 12.3255 3.88707V3.85848C12.3255 3.85276 12.3255 3.84991 12.3255 3.84419V3.84133L12.2297 1.31984C12.221 1.10543 12.0381 0.939618 11.8232 0.948194C11.6054 0.956771 11.437 1.13402 11.4458 1.34843L11.5067 2.92936C10.4528 2.08029 9.15495 1.58857 7.76711 1.51996C6.04829 1.4342 4.39624 2.01454 3.12163 3.15235C1.36797 4.71613 0.62469 7.09468 1.18215 9.35887C1.2257 9.53612 1.38539 9.65333 1.5625 9.65333C1.59443 9.65333 1.62347 9.65047 1.65541 9.64189C1.86445 9.59044 1.99511 9.38174 1.94284 9.17591C1.45507 7.18616 2.10544 5.09636 3.64715 3.72412Z" fill="white" stroke="white" stroke-width="0.3"/>
<path d="M13.8178 6.53723C13.7656 6.33139 13.5536 6.20275 13.3446 6.25421C13.1355 6.30566 13.0049 6.51436 13.0571 6.72019C13.5478 8.70994 12.8946 10.7997 11.3528 12.172C10.2699 13.1354 8.91106 13.61 7.55806 13.61C6.26604 13.61 4.97691 13.1783 3.93749 12.3264L5.6447 12.1748C5.85956 12.1548 6.01924 11.969 5.99892 11.7546C5.9786 11.5402 5.78987 11.3858 5.57212 11.4058L2.99097 11.6345C2.77612 11.6545 2.61643 11.8404 2.63675 12.0548L2.86903 14.5963C2.88645 14.7964 3.05775 14.9479 3.25809 14.9479C3.2697 14.9479 3.28131 14.9479 3.29293 14.945C3.50778 14.925 3.66747 14.7392 3.64715 14.5248L3.50778 12.9782C4.56172 13.8187 5.85375 14.3075 7.23288 14.3761C7.34321 14.3819 7.45354 14.3847 7.56096 14.3847C9.16075 14.3847 10.6821 13.8072 11.8784 12.7437C13.632 11.18 14.3753 8.80428 13.8178 6.53723Z" fill="white" stroke="white" stroke-width="0.3"/>
</svg>
