<svg width="10" height="13" viewBox="0 0 10 13" fill="none" xmlns="http://www.w3.org/2000/svg">
<path d="M9.9229 2.24603L7.81765 0.0793457C7.7683 0.0285645 7.70137 0 7.6316 0H0.789474C0.353462 0 0 0.363771 0 0.8125V12.1875C0 12.6362 0.353462 13 0.789474 13H9.21053C9.64654 13 10 12.6362 10 12.1875V2.4375C10 2.36567 9.97227 2.29681 9.9229 2.24603ZM9.47369 12.1875C9.47369 12.3371 9.35586 12.4583 9.21053 12.4583H0.789474C0.644137 12.4583 0.526308 12.3371 0.526308 12.1875V0.8125C0.526308 0.662924 0.644137 0.541658 0.789474 0.541658H7.52263L9.47369 2.54962V12.1875Z" fill="#767B7F"/>
<path d="M7.82722 3.12634H5.33956C5.24415 3.12634 5.16681 3.23245 5.16681 3.36334C5.16681 3.49424 5.24415 3.60034 5.33956 3.60034H7.82722C7.92263 3.60034 7.99997 3.49424 7.99997 3.36334C7.99997 3.23245 7.92263 3.12634 7.82722 3.12634Z" fill="#767B7F"/>
<path d="M7.84467 4.33348C7.80282 4.2894 7.74477 4.26404 7.68559 4.26404C7.62641 4.26404 7.56835 4.2894 7.5265 4.33348C7.48465 4.37756 7.46057 4.43871 7.46057 4.50104C7.46057 4.56337 7.48465 4.62451 7.5265 4.66859C7.56835 4.71268 7.62641 4.73803 7.68559 4.73803C7.74477 4.73803 7.80282 4.71268 7.84467 4.66859C7.88652 4.62451 7.9106 4.56337 7.9106 4.50104C7.9106 4.43871 7.88652 4.37756 7.84467 4.33348Z" fill="#767B7F"/>
<path d="M6.73915 4.26404H5.39182C5.26755 4.26404 5.16681 4.37014 5.16681 4.50104C5.16681 4.63193 5.26755 4.73804 5.39182 4.73804H6.73915C6.86342 4.73804 6.96416 4.63193 6.96416 4.50104C6.96416 4.37014 6.86342 4.26404 6.73915 4.26404Z" fill="#767B7F"/>
<path d="M7.82722 5.68604H5.33956C5.24415 5.68604 5.16681 5.79214 5.16681 5.92303C5.16681 6.05393 5.24415 6.16003 5.33956 6.16003H7.82722C7.92263 6.16003 7.99997 6.05393 7.99997 5.92303C7.99997 5.79214 7.92263 5.68604 7.82722 5.68604Z" fill="#767B7F"/>
<path d="M7.84467 6.89305C7.80282 6.84897 7.74477 6.82361 7.68559 6.82361C7.62641 6.82361 7.56835 6.84897 7.5265 6.89305C7.48465 6.93713 7.46057 6.99828 7.46057 7.06061C7.46057 7.12294 7.48465 7.18408 7.5265 7.22816C7.56835 7.27225 7.62641 7.2976 7.68559 7.2976C7.74477 7.2976 7.80282 7.27225 7.84467 7.22816C7.88652 7.18408 7.9106 7.12294 7.9106 7.06061C7.9106 6.99828 7.88652 6.93713 7.84467 6.89305Z" fill="#767B7F"/>
<path d="M6.73915 6.82361H5.39182C5.26755 6.82361 5.16681 6.92971 5.16681 7.06061C5.16681 7.1915 5.26755 7.29761 5.39182 7.29761H6.73915C6.86342 7.29761 6.96416 7.1915 6.96416 7.06061C6.96416 6.92971 6.86342 6.82361 6.73915 6.82361Z" fill="#767B7F"/>
<path d="M7.82722 8.24548H5.33956C5.24415 8.24548 5.16681 8.35159 5.16681 8.48248C5.16681 8.61338 5.24415 8.71948 5.33956 8.71948H7.82722C7.92263 8.71948 7.99997 8.61338 7.99997 8.48248C7.99997 8.35159 7.92263 8.24548 7.82722 8.24548Z" fill="#767B7F"/>
<path d="M7.84467 9.4525C7.80282 9.40842 7.74477 9.38306 7.68559 9.38306C7.62641 9.38306 7.56835 9.40842 7.5265 9.4525C7.48465 9.49658 7.46057 9.55772 7.46057 9.62005C7.46057 9.68239 7.48465 9.74353 7.5265 9.78761C7.56835 9.83169 7.62641 9.85705 7.68559 9.85705C7.74477 9.85705 7.80282 9.83169 7.84467 9.78761C7.88652 9.74353 7.9106 9.68239 7.9106 9.62005C7.9106 9.55772 7.88652 9.49658 7.84467 9.4525Z" fill="#767B7F"/>
<path d="M6.73915 9.38306H5.39182C5.26755 9.38306 5.16681 9.48916 5.16681 9.62005C5.16681 9.75095 5.26755 9.85705 5.39182 9.85705H6.73915C6.86342 9.85705 6.96416 9.75095 6.96416 9.62005C6.96416 9.48916 6.86342 9.38306 6.73915 9.38306Z" fill="#767B7F"/>
<path d="M3.96098 3.06941C3.87311 2.97687 3.73063 2.97687 3.64276 3.06939L2.68055 4.08287L2.38414 3.77064C2.29627 3.67812 2.15379 3.67812 2.0659 3.77064C1.97803 3.86319 1.97803 4.01326 2.0659 4.10583L2.52144 4.58563C2.56539 4.63192 2.62297 4.65505 2.68055 4.65505C2.73813 4.65505 2.79574 4.63192 2.83966 4.58563L3.96098 3.4046C4.04885 3.31205 4.04885 3.16199 3.96098 3.06941Z" fill="#767B7F"/>
<path d="M3.41178 8.24548H2.3317C2.20743 8.24548 2.10669 8.35159 2.10669 8.48248V9.62007C2.10669 9.75097 2.20743 9.85707 2.3317 9.85707H3.41178C3.53605 9.85707 3.63679 9.75097 3.63679 9.62007V8.48248C3.63679 8.35159 3.53605 8.24548 3.41178 8.24548ZM3.18676 9.38308H2.55672V8.71948H3.18676V9.38308Z" fill="#767B7F"/>
<path d="M3.41178 5.68604H2.3317C2.20743 5.68604 2.10669 5.79214 2.10669 5.92303V7.06063C2.10669 7.19152 2.20743 7.29762 2.3317 7.29762H3.41178C3.53605 7.29762 3.63679 7.19152 3.63679 7.06063V5.92303C3.63679 5.79214 3.53605 5.68604 3.41178 5.68604ZM3.18676 6.82363H2.55672V6.16003H3.18676V6.82363Z" fill="#767B7F"/>
</svg>
