<svg width="35" height="35" viewBox="0 0 35 35" fill="none" xmlns="http://www.w3.org/2000/svg">
<circle cx="17.5" cy="17.5" r="17.5" fill="#BDBDBD"/>
<path d="M23.1958 27H11.0986V24.8271L15.7007 20.2007C17.0597 18.8091 17.959 17.8244 18.3984 17.2466C18.846 16.6606 19.1715 16.1113 19.375 15.5986C19.5785 15.0859 19.6802 14.5366 19.6802 13.9507C19.6802 13.145 19.436 12.5103 18.9478 12.0464C18.4676 11.5825 17.8003 11.3506 16.9458 11.3506C16.2622 11.3506 15.599 11.4767 14.9561 11.729C14.3213 11.9813 13.5848 12.437 12.7466 13.0962L11.1963 11.2041C12.1891 10.3659 13.1535 9.77181 14.0894 9.42188C15.0252 9.07194 16.0221 8.89697 17.0801 8.89697C18.7402 8.89697 20.0708 9.33236 21.0718 10.2031C22.0728 11.0658 22.5732 12.2295 22.5732 13.6943C22.5732 14.5 22.4268 15.265 22.1338 15.9893C21.849 16.7135 21.4054 17.4622 20.8032 18.2354C20.2091 19.0003 19.2163 20.0379 17.8247 21.3481L14.7241 24.3511V24.4731H23.1958V27Z" fill="white"/>
</svg>
