<svg width="100%" height="100%" viewBox="0 0 155 20" fill="none" xmlns="http://www.w3.org/2000/svg">
<path d="M34.0703 12.6738C34.0703 13.4355 33.7949 14.0332 33.2441 14.4668C32.6934 14.9004 31.9336 15.1172 30.9648 15.1172C29.9961 15.1172 29.2031 14.9668 28.5859 14.666V13.3418C28.9766 13.5254 29.3906 13.6699 29.8281 13.7754C30.2695 13.8809 30.6797 13.9336 31.0586 13.9336C31.6133 13.9336 32.0215 13.8281 32.2832 13.6172C32.5488 13.4062 32.6816 13.123 32.6816 12.7676C32.6816 12.4473 32.5605 12.1758 32.3184 11.9531C32.0762 11.7305 31.5762 11.4668 30.8184 11.1621C30.0371 10.8457 29.4863 10.4844 29.166 10.0781C28.8457 9.67188 28.6855 9.18359 28.6855 8.61328C28.6855 7.89844 28.9395 7.33594 29.4473 6.92578C29.9551 6.51562 30.6367 6.31055 31.4922 6.31055C32.3125 6.31055 33.1289 6.49023 33.9414 6.84961L33.4961 7.99219C32.7344 7.67188 32.0547 7.51172 31.457 7.51172C31.0039 7.51172 30.6602 7.61133 30.4258 7.81055C30.1914 8.00586 30.0742 8.26562 30.0742 8.58984C30.0742 8.8125 30.1211 9.00391 30.2148 9.16406C30.3086 9.32031 30.4629 9.46875 30.6777 9.60938C30.8926 9.75 31.2793 9.93555 31.8379 10.166C32.4668 10.4277 32.9277 10.6719 33.2207 10.8984C33.5137 11.125 33.7285 11.3809 33.8652 11.666C34.002 11.9512 34.0703 12.2871 34.0703 12.6738ZM40.1523 15L39.959 14.1504H39.8887C39.6973 14.4512 39.4238 14.6875 39.0684 14.8594C38.7168 15.0312 38.3145 15.1172 37.8613 15.1172C37.0762 15.1172 36.4902 14.9219 36.1035 14.5312C35.7168 14.1406 35.5234 13.5488 35.5234 12.7559V8.51953H36.9121V12.5156C36.9121 13.0117 37.0137 13.3848 37.2168 13.6348C37.4199 13.8809 37.7383 14.0039 38.1719 14.0039C38.75 14.0039 39.1738 13.832 39.4434 13.4883C39.7168 13.1406 39.8535 12.5605 39.8535 11.748V8.51953H41.2363V15H40.1523ZM45.8125 15.1172C44.832 15.1172 44.0859 14.832 43.5742 14.2617C43.0664 13.6875 42.8125 12.8652 42.8125 11.7949C42.8125 10.7051 43.0781 9.86719 43.6094 9.28125C44.1445 8.69531 44.916 8.40234 45.9238 8.40234C46.6074 8.40234 47.2227 8.5293 47.7695 8.7832L47.3535 9.89062C46.7715 9.66406 46.291 9.55078 45.9121 9.55078C44.791 9.55078 44.2305 10.2949 44.2305 11.7832C44.2305 12.5098 44.3691 13.0566 44.6465 13.4238C44.9277 13.7871 45.3379 13.9688 45.877 13.9688C46.4902 13.9688 47.0703 13.8164 47.6172 13.5117V14.7129C47.3711 14.8574 47.1074 14.9609 46.8262 15.0234C46.5488 15.0859 46.2109 15.1172 45.8125 15.1172ZM51.7539 15.1172C50.7734 15.1172 50.0273 14.832 49.5156 14.2617C49.0078 13.6875 48.7539 12.8652 48.7539 11.7949C48.7539 10.7051 49.0195 9.86719 49.5508 9.28125C50.0859 8.69531 50.8574 8.40234 51.8652 8.40234C52.5488 8.40234 53.1641 8.5293 53.7109 8.7832L53.2949 9.89062C52.7129 9.66406 52.2324 9.55078 51.8535 9.55078C50.7324 9.55078 50.1719 10.2949 50.1719 11.7832C50.1719 12.5098 50.3105 13.0566 50.5879 13.4238C50.8691 13.7871 51.2793 13.9688 51.8184 13.9688C52.4316 13.9688 53.0117 13.8164 53.5586 13.5117V14.7129C53.3125 14.8574 53.0488 14.9609 52.7676 15.0234C52.4902 15.0859 52.1523 15.1172 51.7539 15.1172ZM57.9121 15.1172C56.9043 15.1172 56.1152 14.8242 55.5449 14.2383C54.9785 13.6484 54.6953 12.8379 54.6953 11.8066C54.6953 10.748 54.959 9.91602 55.4863 9.31055C56.0137 8.70508 56.7383 8.40234 57.6602 8.40234C58.5156 8.40234 59.1914 8.66211 59.6875 9.18164C60.1836 9.70117 60.4316 10.416 60.4316 11.3262V12.0703H56.1133C56.1328 12.6992 56.3027 13.1836 56.623 13.5234C56.9434 13.8594 57.3945 14.0273 57.9766 14.0273C58.3594 14.0273 58.7148 13.9922 59.043 13.9219C59.375 13.8477 59.7305 13.7266 60.1094 13.5586V14.6777C59.7734 14.8379 59.4336 14.9512 59.0898 15.0176C58.7461 15.084 58.3535 15.1172 57.9121 15.1172ZM57.6602 9.44531C57.2227 9.44531 56.8711 9.58398 56.6055 9.86133C56.3438 10.1387 56.1875 10.543 56.1367 11.0742H59.0781C59.0703 10.5391 58.9414 10.1348 58.6914 9.86133C58.4414 9.58398 58.0977 9.44531 57.6602 9.44531ZM66.3496 13.1543C66.3496 13.7871 66.1191 14.2734 65.6582 14.6133C65.1973 14.9492 64.5371 15.1172 63.6777 15.1172C62.8145 15.1172 62.1211 14.9863 61.5977 14.7246V13.5352C62.3594 13.8867 63.0684 14.0625 63.7246 14.0625C64.5723 14.0625 64.9961 13.8066 64.9961 13.2949C64.9961 13.1309 64.9492 12.9941 64.8555 12.8848C64.7617 12.7754 64.6074 12.6621 64.3926 12.5449C64.1777 12.4277 63.8789 12.2949 63.4961 12.1465C62.75 11.8574 62.2441 11.5684 61.9785 11.2793C61.7168 10.9902 61.5859 10.6152 61.5859 10.1543C61.5859 9.59961 61.8086 9.16992 62.2539 8.86523C62.7031 8.55664 63.3125 8.40234 64.082 8.40234C64.8438 8.40234 65.5645 8.55664 66.2441 8.86523L65.7988 9.90234C65.0996 9.61328 64.5117 9.46875 64.0352 9.46875C63.3086 9.46875 62.9453 9.67578 62.9453 10.0898C62.9453 10.293 63.0391 10.4648 63.2266 10.6055C63.418 10.7461 63.832 10.9395 64.4688 11.1855C65.0039 11.3926 65.3926 11.582 65.6348 11.7539C65.877 11.9258 66.0566 12.125 66.1738 12.3516C66.291 12.5742 66.3496 12.8418 66.3496 13.1543ZM72.1973 13.1543C72.1973 13.7871 71.9668 14.2734 71.5059 14.6133C71.0449 14.9492 70.3848 15.1172 69.5254 15.1172C68.6621 15.1172 67.9688 14.9863 67.4453 14.7246V13.5352C68.207 13.8867 68.916 14.0625 69.5723 14.0625C70.4199 14.0625 70.8438 13.8066 70.8438 13.2949C70.8438 13.1309 70.7969 12.9941 70.7031 12.8848C70.6094 12.7754 70.4551 12.6621 70.2402 12.5449C70.0254 12.4277 69.7266 12.2949 69.3438 12.1465C68.5977 11.8574 68.0918 11.5684 67.8262 11.2793C67.5645 10.9902 67.4336 10.6152 67.4336 10.1543C67.4336 9.59961 67.6562 9.16992 68.1016 8.86523C68.5508 8.55664 69.1602 8.40234 69.9297 8.40234C70.6914 8.40234 71.4121 8.55664 72.0918 8.86523L71.6465 9.90234C70.9473 9.61328 70.3594 9.46875 69.8828 9.46875C69.1562 9.46875 68.793 9.67578 68.793 10.0898C68.793 10.293 68.8867 10.4648 69.0742 10.6055C69.2656 10.7461 69.6797 10.9395 70.3164 11.1855C70.8516 11.3926 71.2402 11.582 71.4824 11.7539C71.7246 11.9258 71.9043 12.125 72.0215 12.3516C72.1387 12.5742 72.1973 12.8418 72.1973 13.1543ZM76.9434 9.5625H75.3613V15H73.9785V9.5625H72.9121V8.91797L73.9785 8.49609V8.07422C73.9785 7.30859 74.1582 6.74219 74.5176 6.375C74.877 6.00391 75.4258 5.81836 76.1641 5.81836C76.6484 5.81836 77.125 5.89844 77.5938 6.05859L77.2305 7.10156C76.8906 6.99219 76.5664 6.9375 76.2578 6.9375C75.9453 6.9375 75.7168 7.03516 75.5723 7.23047C75.4316 7.42188 75.3613 7.71094 75.3613 8.09766V8.51953H76.9434V9.5625ZM82.6211 15L82.4277 14.1504H82.3574C82.166 14.4512 81.8926 14.6875 81.5371 14.8594C81.1855 15.0312 80.7832 15.1172 80.3301 15.1172C79.5449 15.1172 78.959 14.9219 78.5723 14.5312C78.1855 14.1406 77.9922 13.5488 77.9922 12.7559V8.51953H79.3809V12.5156C79.3809 13.0117 79.4824 13.3848 79.6855 13.6348C79.8887 13.8809 80.207 14.0039 80.6406 14.0039C81.2188 14.0039 81.6426 13.832 81.9121 13.4883C82.1855 13.1406 82.3223 12.5605 82.3223 11.748V8.51953H83.7051V15H82.6211ZM87.0449 15H85.668V5.88281H87.0449V15ZM90.3965 15H89.0195V5.88281H90.3965V15ZM91.3867 8.51953H92.8867L94.2051 12.1934C94.4043 12.7168 94.5371 13.209 94.6035 13.6699H94.6504C94.6855 13.4551 94.75 13.1953 94.8438 12.8906C94.9375 12.582 95.4336 11.125 96.332 8.51953H97.8203L95.0488 15.8613C94.5449 17.209 93.7051 17.8828 92.5293 17.8828C92.2246 17.8828 91.9277 17.8496 91.6387 17.7832V16.6934C91.8457 16.7402 92.082 16.7637 92.3477 16.7637C93.0117 16.7637 93.4785 16.3789 93.748 15.6094L93.9883 15L91.3867 8.51953ZM103.398 15L100.938 8.51953H102.391L103.709 12.2871C103.936 12.9199 104.072 13.4316 104.119 13.8223H104.166C104.201 13.541 104.338 13.0293 104.576 12.2871L105.895 8.51953H107.359L104.887 15H103.398ZM112.398 15L112.123 14.0977H112.076C111.764 14.4922 111.449 14.7617 111.133 14.9062C110.816 15.0469 110.41 15.1172 109.914 15.1172C109.277 15.1172 108.779 14.9453 108.42 14.6016C108.064 14.2578 107.887 13.7715 107.887 13.1426C107.887 12.4746 108.135 11.9707 108.631 11.6309C109.127 11.291 109.883 11.1055 110.898 11.0742L112.018 11.0391V10.6934C112.018 10.2793 111.92 9.9707 111.725 9.76758C111.533 9.56055 111.234 9.45703 110.828 9.45703C110.496 9.45703 110.178 9.50586 109.873 9.60352C109.568 9.70117 109.275 9.81641 108.994 9.94922L108.549 8.96484C108.9 8.78125 109.285 8.64258 109.703 8.54883C110.121 8.45117 110.516 8.40234 110.887 8.40234C111.711 8.40234 112.332 8.58203 112.75 8.94141C113.172 9.30078 113.383 9.86523 113.383 10.6348V15H112.398ZM110.348 14.0625C110.848 14.0625 111.248 13.9238 111.549 13.6465C111.854 13.3652 112.006 12.9727 112.006 12.4688V11.9062L111.174 11.9414C110.525 11.9648 110.053 12.0742 109.756 12.2695C109.463 12.4609 109.316 12.7559 109.316 13.1543C109.316 13.4434 109.402 13.668 109.574 13.8281C109.746 13.9844 110.004 14.0625 110.348 14.0625ZM116.682 15H115.305V5.88281H116.682V15ZM120.033 15H118.656V8.51953H120.033V15ZM118.574 6.80273C118.574 6.55664 118.641 6.36719 118.773 6.23438C118.91 6.10156 119.104 6.03516 119.354 6.03516C119.596 6.03516 119.783 6.10156 119.916 6.23438C120.053 6.36719 120.121 6.55664 120.121 6.80273C120.121 7.03711 120.053 7.22266 119.916 7.35938C119.783 7.49219 119.596 7.55859 119.354 7.55859C119.104 7.55859 118.91 7.49219 118.773 7.35938C118.641 7.22266 118.574 7.03711 118.574 6.80273ZM124.193 15.1172C123.385 15.1172 122.754 14.8242 122.301 14.2383C121.848 13.6523 121.621 12.8301 121.621 11.7715C121.621 10.709 121.85 9.88281 122.307 9.29297C122.768 8.69922 123.404 8.40234 124.217 8.40234C125.068 8.40234 125.717 8.7168 126.162 9.3457H126.232C126.166 8.88086 126.133 8.51367 126.133 8.24414V5.88281H127.516V15H126.438L126.197 14.1504H126.133C125.691 14.7949 125.045 15.1172 124.193 15.1172ZM124.562 14.0039C125.129 14.0039 125.541 13.8457 125.799 13.5293C126.057 13.209 126.189 12.6914 126.197 11.9766V11.7832C126.197 10.9668 126.064 10.3867 125.799 10.043C125.533 9.69922 125.117 9.52734 124.551 9.52734C124.066 9.52734 123.693 9.72461 123.432 10.1191C123.17 10.5098 123.039 11.0684 123.039 11.7949C123.039 12.5137 123.166 13.0625 123.42 13.4414C123.674 13.8164 124.055 14.0039 124.562 14.0039ZM133.539 15L133.264 14.0977H133.217C132.904 14.4922 132.59 14.7617 132.273 14.9062C131.957 15.0469 131.551 15.1172 131.055 15.1172C130.418 15.1172 129.92 14.9453 129.561 14.6016C129.205 14.2578 129.027 13.7715 129.027 13.1426C129.027 12.4746 129.275 11.9707 129.771 11.6309C130.268 11.291 131.023 11.1055 132.039 11.0742L133.158 11.0391V10.6934C133.158 10.2793 133.061 9.9707 132.865 9.76758C132.674 9.56055 132.375 9.45703 131.969 9.45703C131.637 9.45703 131.318 9.50586 131.014 9.60352C130.709 9.70117 130.416 9.81641 130.135 9.94922L129.689 8.96484C130.041 8.78125 130.426 8.64258 130.844 8.54883C131.262 8.45117 131.656 8.40234 132.027 8.40234C132.852 8.40234 133.473 8.58203 133.891 8.94141C134.312 9.30078 134.523 9.86523 134.523 10.6348V15H133.539ZM131.488 14.0625C131.988 14.0625 132.389 13.9238 132.689 13.6465C132.994 13.3652 133.146 12.9727 133.146 12.4688V11.9062L132.314 11.9414C131.666 11.9648 131.193 12.0742 130.896 12.2695C130.604 12.4609 130.457 12.7559 130.457 13.1543C130.457 13.4434 130.543 13.668 130.715 13.8281C130.887 13.9844 131.145 14.0625 131.488 14.0625ZM138.859 14.0039C139.195 14.0039 139.531 13.9512 139.867 13.8457V14.8828C139.715 14.9492 139.518 15.0039 139.275 15.0469C139.037 15.0938 138.789 15.1172 138.531 15.1172C137.227 15.1172 136.574 14.4297 136.574 13.0547V9.5625H135.689V8.95312L136.639 8.44922L137.107 7.07812H137.957V8.51953H139.803V9.5625H137.957V13.0312C137.957 13.3633 138.039 13.6094 138.203 13.7695C138.371 13.9258 138.59 14.0039 138.859 14.0039ZM143.998 15.1172C142.99 15.1172 142.201 14.8242 141.631 14.2383C141.064 13.6484 140.781 12.8379 140.781 11.8066C140.781 10.748 141.045 9.91602 141.572 9.31055C142.1 8.70508 142.824 8.40234 143.746 8.40234C144.602 8.40234 145.277 8.66211 145.773 9.18164C146.27 9.70117 146.518 10.416 146.518 11.3262V12.0703H142.199C142.219 12.6992 142.389 13.1836 142.709 13.5234C143.029 13.8594 143.48 14.0273 144.062 14.0273C144.445 14.0273 144.801 13.9922 145.129 13.9219C145.461 13.8477 145.816 13.7266 146.195 13.5586V14.6777C145.859 14.8379 145.52 14.9512 145.176 15.0176C144.832 15.084 144.439 15.1172 143.998 15.1172ZM143.746 9.44531C143.309 9.44531 142.957 9.58398 142.691 9.86133C142.43 10.1387 142.273 10.543 142.223 11.0742H145.164C145.156 10.5391 145.027 10.1348 144.777 9.86133C144.527 9.58398 144.184 9.44531 143.746 9.44531ZM150.268 15.1172C149.459 15.1172 148.828 14.8242 148.375 14.2383C147.922 13.6523 147.695 12.8301 147.695 11.7715C147.695 10.709 147.924 9.88281 148.381 9.29297C148.842 8.69922 149.479 8.40234 150.291 8.40234C151.143 8.40234 151.791 8.7168 152.236 9.3457H152.307C152.24 8.88086 152.207 8.51367 152.207 8.24414V5.88281H153.59V15H152.512L152.271 14.1504H152.207C151.766 14.7949 151.119 15.1172 150.268 15.1172ZM150.637 14.0039C151.203 14.0039 151.615 13.8457 151.873 13.5293C152.131 13.209 152.264 12.6914 152.271 11.9766V11.7832C152.271 10.9668 152.139 10.3867 151.873 10.043C151.607 9.69922 151.191 9.52734 150.625 9.52734C150.141 9.52734 149.768 9.72461 149.506 10.1191C149.244 10.5098 149.113 11.0684 149.113 11.7949C149.113 12.5137 149.24 13.0625 149.494 13.4414C149.748 13.8164 150.129 14.0039 150.637 14.0039Z" fill="#0078BF"/>
<path d="M14.4205 6.82693C14.7256 7.13211 14.7256 7.6268 14.4205 7.93182L9.17938 13.1731C8.87421 13.4781 8.37967 13.4781 8.07449 13.1731L5.57953 10.6779C5.27435 10.3729 5.27435 9.87823 5.57953 9.57321C5.88455 9.26804 6.37924 9.26804 6.68427 9.57321L8.62686 11.5158L13.3156 6.82693C13.6208 6.52191 14.1154 6.52191 14.4205 6.82693ZM20 10C20 15.5275 15.5267 20 10 20C4.4725 20 0 15.5267 0 10C0 4.4725 4.47327 0 10 0C15.5275 0 20 4.47327 20 10ZM18.4375 10C18.4375 5.33615 14.6632 1.5625 10 1.5625C5.33615 1.5625 1.5625 5.33676 1.5625 10C1.5625 14.6638 5.33676 18.4375 10 18.4375C14.6638 18.4375 18.4375 14.6632 18.4375 10Z" fill="#0078BF"/>
</svg>
