<svg xmlns="http://www.w3.org/2000/svg" width="17" height="17" viewBox="0 0 17 17" fill="none">
<path d="M15.9992 2.83364C15.9993 2.82499 16 2.81634 16 2.8077C16 2.77202 15.9976 2.73661 15.9955 2.70121C15.9948 2.68887 15.995 2.67643 15.9939 2.66418C15.9894 2.60941 15.9823 2.55499 15.9727 2.50103C15.9703 2.48734 15.9667 2.47391 15.9639 2.46022C15.9558 2.42004 15.9468 2.38004 15.9359 2.3404C15.9306 2.32139 15.9244 2.30274 15.9185 2.28392C15.9078 2.24986 15.8966 2.21608 15.8839 2.18257C15.8764 2.16275 15.8685 2.1432 15.8602 2.12365C15.8466 2.09113 15.8318 2.05905 15.8162 2.02725C15.8071 2.00851 15.798 1.98978 15.7881 1.97131C15.7702 1.93761 15.7507 1.90464 15.7305 1.87185C15.7209 1.85644 15.7122 1.84068 15.7022 1.82545C15.6711 1.77816 15.6382 1.73158 15.6025 1.68653C15.2968 1.30086 14.8562 1.05105 14.3935 1.00132C14.2699 0.987983 14.1587 1.07744 14.1455 1.20113C14.1446 1.20933 14.1442 1.21753 14.1442 1.22555C14.1442 1.22933 14.1451 1.23294 14.1453 1.23672C14.1456 1.24339 14.1462 1.24996 14.1472 1.25654C14.1483 1.26438 14.1498 1.27203 14.1517 1.2796C14.1532 1.28582 14.1548 1.29185 14.1569 1.29789C14.1595 1.30537 14.1626 1.31257 14.1658 1.31969C14.1684 1.32528 14.171 1.33086 14.174 1.33618C14.178 1.34311 14.1825 1.34969 14.1872 1.35618C14.1907 1.36104 14.1939 1.36591 14.1978 1.3705C14.2031 1.37672 14.209 1.38239 14.215 1.38807C14.2192 1.39203 14.2231 1.39627 14.2276 1.39987C14.2343 1.40528 14.2415 1.40978 14.2487 1.41447C14.2534 1.41744 14.2577 1.42077 14.2626 1.42347C14.2709 1.42798 14.28 1.4314 14.289 1.43492C14.2934 1.43663 14.2974 1.43879 14.302 1.44023C14.3159 1.44456 14.3303 1.44771 14.3453 1.44933C14.6888 1.48636 15.0184 1.67482 15.2496 1.96653C15.2765 2.0005 15.3013 2.03545 15.3247 2.07113C15.3323 2.08284 15.3392 2.09491 15.3465 2.10671C15.3615 2.13104 15.3761 2.15563 15.3894 2.18058C15.397 2.19482 15.404 2.20923 15.4112 2.22365C15.4227 2.24716 15.4337 2.27085 15.4438 2.29482C15.4502 2.30986 15.4563 2.32491 15.4621 2.34013C15.4714 2.36464 15.4798 2.3895 15.4876 2.41437C15.4922 2.42896 15.4971 2.44355 15.5012 2.45833C15.5092 2.4868 15.5156 2.51554 15.5216 2.54445C15.5239 2.55572 15.5269 2.56689 15.529 2.57824C15.5362 2.61842 15.5417 2.65887 15.5451 2.69959C15.5458 2.70788 15.5456 2.71616 15.5462 2.72445C15.5483 2.75607 15.5493 2.78779 15.5491 2.81959C15.5486 2.86851 15.5461 2.91751 15.54 2.96652L14.978 6.99027C14.9147 7.44279 14.702 7.87008 14.379 8.19314L7.1291 15.4439C6.98804 15.585 6.75843 15.585 6.61728 15.4439L1.55632 10.3823C1.52597 10.3519 1.50354 10.3171 1.48624 10.2803C1.48345 10.2743 1.47949 10.2688 1.47696 10.2627C1.47642 10.2614 1.47633 10.2601 1.47588 10.2589C1.45922 10.2164 1.45057 10.1714 1.45057 10.1265C1.45057 10.0815 1.45922 10.0365 1.47588 9.99402C1.47633 9.99276 1.47651 9.99141 1.47696 9.99024C1.47949 9.98411 1.48345 9.97853 1.48624 9.97258C1.50354 9.93583 1.52597 9.90087 1.55632 9.8706L8.80618 2.61986C9.12929 2.29671 9.55644 2.08401 10.009 2.02077L13.0108 1.6014C13.0255 1.59933 13.0397 1.59572 13.0533 1.59104C13.0578 1.58951 13.0619 1.58717 13.0662 1.58536C13.075 1.58167 13.0837 1.57798 13.0919 1.57329C13.0968 1.5705 13.1011 1.56717 13.1056 1.56401C13.1125 1.55924 13.1195 1.55455 13.1259 1.54906C13.1303 1.54527 13.1343 1.54095 13.1384 1.53681C13.1441 1.53113 13.1496 1.52537 13.1546 1.51915C13.1584 1.51446 13.1617 1.5096 13.1651 1.50464C13.1695 1.49816 13.1736 1.49158 13.1774 1.48464C13.1803 1.47933 13.1829 1.47392 13.1853 1.46834C13.1885 1.46113 13.1913 1.45374 13.1936 1.44618C13.1954 1.44041 13.1971 1.43465 13.1985 1.42861C13.2003 1.42068 13.2014 1.41266 13.2024 1.40447C13.2032 1.39843 13.2039 1.39248 13.2041 1.38636C13.2042 1.38375 13.2048 1.38131 13.2048 1.3787C13.2048 1.36834 13.2041 1.3578 13.2026 1.34717C13.1854 1.22411 13.072 1.13807 12.9484 1.15528L9.94666 1.57464C9.39772 1.65131 8.87959 1.90942 8.48775 2.3013L1.2379 9.55204C1.08449 9.70547 1 9.90943 1 10.1265C1 10.3435 1.08449 10.5474 1.2379 10.7009L6.29885 15.7624C6.45721 15.9208 6.6652 16 6.87319 16C7.08118 16 7.28926 15.9208 7.44753 15.7624L14.6974 8.51169C15.0893 8.11972 15.3474 7.60152 15.424 7.05261L15.9865 3.02544C15.9932 2.97193 15.9965 2.91859 15.9982 2.86526C15.9986 2.85445 15.999 2.84409 15.9992 2.83364Z" fill="#767B7F" stroke="#767B7F" stroke-width="0.5"/>
</svg>